<svg width="48" height="45" viewBox="0 0 48 45" fill="none" xmlns="http://www.w3.org/2000/svg">
<g clip-path="url(#clip0_315_4791)">
<path d="M0.539953 6.50404V7.90804H11.472V6.50404H0.539953ZM5.18395 3.80404V13.068H6.73195V3.80404H5.18395ZM9.27595 1.89604C7.30795 2.49604 4.07995 2.94004 1.19995 3.16804C1.35595 3.49204 1.54795 4.08004 1.58395 4.44004C4.52395 4.23604 7.90795 3.81604 10.368 3.12004L9.27595 1.89604ZM12.504 4.95604V6.21604H16.836V4.95604H12.504ZM12.804 2.56804V3.81604H16.656V2.56804H12.804ZM15.84 6.80404V11.232H16.752V6.80404H15.84ZM14.136 5.58004V13.08H15.324V5.58004H14.136ZM12.684 6.82804V8.23204C12.684 9.27604 12.624 10.5 12.252 11.472C12.516 11.604 12.9 11.892 13.08 12.096C13.548 10.956 13.62 9.51604 13.62 8.26804V6.82804H12.684ZM16.896 2.56804V3.56404H23.4V2.56804H16.896ZM17.184 4.06804V5.06404H23.208V4.06804H17.184ZM16.836 8.62804V9.70804H23.652V8.62804H16.836ZM17.832 11.748V12.768H22.632V11.748H17.832ZM19.44 1.82404V4.66804H20.868V1.82404H19.44ZM18.708 6.33604H21.66V6.93604H18.708V6.33604ZM17.436 5.43604V7.84804H22.992V5.43604H17.436ZM17.364 10.092V13.068H18.636V11.052H21.78V13.056H23.124V10.092H17.364ZM18.012 7.94404C18.156 8.25604 18.312 8.70004 18.384 8.98804L19.56 8.67604C19.488 8.41204 19.296 7.98004 19.14 7.68004L18.012 7.94404ZM21.24 7.57204C21.144 7.89604 20.928 8.36404 20.772 8.70004L21.792 9.01204C21.984 8.72404 22.224 8.34004 22.5 7.90804L21.24 7.57204ZM26.976 1.76404C26.46 3.32404 25.524 4.86004 24.444 5.79604C24.792 6.00004 25.404 6.48004 25.68 6.73204C26.748 5.65204 27.804 3.92404 28.44 2.13604L26.976 1.76404ZM27.228 3.13204L26.532 4.52404H34.86V3.13204H27.228ZM26.376 5.96404V9.82804H27.828V7.30804H34.584V5.96404H26.376ZM24.48 9.12004V10.512H35.52V9.12004H24.48ZM29.904 3.85204V13.08H31.392V3.85204H29.904ZM1.04395 18.9V24.984H2.49595V20.316H9.45595V24.924H10.968V18.9H1.04395ZM1.79995 22.896V24.312H10.296V22.896H1.79995ZM5.20795 16.812V28.08H6.73195V16.812H5.20795ZM20.292 19.488C19.044 23.4 16.464 25.62 12.312 26.712C12.6 27.06 13.056 27.756 13.224 28.116C17.52 26.772 20.316 24.252 21.828 19.932L20.292 19.488ZM15.66 19.584L14.22 20.016C15.72 24.168 18.192 26.916 22.692 28.092C22.92 27.672 23.388 26.988 23.736 26.652C19.464 25.692 16.872 23.136 15.66 19.584ZM12.528 18.708V20.124H23.52V18.708H12.528ZM17.244 16.812V19.572H18.732V16.812H17.244ZM28.08 18.648C28.044 21.912 27.744 24.576 26.304 26.136C26.604 26.316 27.192 26.76 27.396 26.976C28.884 25.14 29.256 22.32 29.364 18.684L28.08 18.648ZM31.14 18.648C31.104 21.96 30.816 24.624 29.328 26.172C29.64 26.352 30.228 26.808 30.42 27.024C31.968 25.2 32.34 22.38 32.436 18.684L31.14 18.648ZM26.328 21.42C27.516 22.344 28.836 23.7 29.436 24.636L30.216 23.556C29.58 22.656 28.272 21.396 27.024 20.508L26.328 21.42ZM29.46 21.276C30.72 22.26 32.124 23.712 32.772 24.696L33.564 23.604C32.892 22.644 31.5 21.312 30.18 20.352L29.46 21.276ZM24.912 17.472V28.056H26.292V18.84H34.488V17.472H24.912ZM33.744 17.472V26.412C33.744 26.604 33.672 26.676 33.468 26.676C33.264 26.676 32.568 26.688 31.956 26.652C32.148 27.024 32.364 27.672 32.424 28.056C33.42 28.056 34.08 28.02 34.548 27.792C34.992 27.564 35.148 27.156 35.148 26.424V17.472H33.744ZM36.792 17.376V18.708H47.304V17.376H36.792ZM41.088 18.036C40.98 18.648 40.728 19.488 40.5 20.076L41.748 20.328C42.036 19.8 42.432 19.032 42.744 18.252L41.088 18.036ZM41.28 21.612V23.76C41.28 24.936 40.608 26.172 36.468 26.94C36.792 27.228 37.2 27.792 37.368 28.092C41.832 27.156 42.78 25.524 42.78 23.796V21.612H41.28ZM42.42 25.872C43.8 26.472 45.672 27.444 46.548 28.104L47.436 26.964C46.488 26.328 44.568 25.416 43.236 24.888L42.42 25.872ZM37.776 19.8V25.38H39.252V21.12H44.856V25.344H46.404V19.8H37.776ZM3.23995 36.396V37.596H10.944V36.396H3.23995ZM2.91595 38.412V39.624H11.484V38.412H2.91595ZM4.76395 35.4V38.976H6.08395V35.4H4.76395ZM4.16395 38.856V41.88H5.48395V38.856H4.16395ZM7.87195 35.4V38.964H9.21595V35.4H7.87195ZM1.54795 32.328V35.892C1.54795 37.812 1.45195 40.524 0.251953 42.372C0.611953 42.516 1.25995 42.888 1.54795 43.116C2.80795 41.136 2.99995 38.004 2.99995 35.892V32.328H1.54795ZM2.43595 32.328V33.54H9.38395V34.392H2.43595V35.604H10.836V32.328H2.43595ZM2.92795 41.604L3.13195 42.924C4.37995 42.732 6.05995 42.492 7.61995 42.228L7.55995 40.992C5.86795 41.244 4.10395 41.484 2.92795 41.604ZM7.53595 38.916L6.34795 39.168C7.12795 41.208 8.49595 42.528 10.764 43.092C10.944 42.732 11.328 42.192 11.616 41.904C9.52795 41.52 8.17195 40.464 7.53595 38.916ZM9.97195 39.468C9.49195 39.864 8.66395 40.404 8.06395 40.716L8.98795 41.4C9.59995 41.112 10.404 40.668 11.052 40.2L9.97195 39.468ZM17.244 36.276V41.352C17.244 41.532 17.172 41.58 16.944 41.58C16.716 41.592 15.864 41.592 15.18 41.556C15.396 41.988 15.624 42.636 15.684 43.08C16.74 43.08 17.532 43.056 18.096 42.84C18.648 42.6 18.828 42.192 18.828 41.388V36.276H17.244ZM14.364 37.788C13.92 39.036 13.128 40.32 12.264 41.112C12.636 41.304 13.296 41.712 13.596 41.976C14.448 41.064 15.336 39.612 15.876 38.184L14.364 37.788ZM20.052 38.304C20.82 39.468 21.636 41.016 21.912 42.012L23.4 41.352C23.076 40.332 22.2 38.856 21.408 37.74L20.052 38.304ZM13.74 32.58V34.008H22.248V32.58H13.74ZM12.648 35.472V36.912H23.376V35.472H12.648Z" fill="black"/>
</g>
<defs>
<clipPath id="clip0_315_4791">
<rect width="48" height="45" fill="white"/>
</clipPath>
</defs>
</svg>
