<svg width="139" height="45" viewBox="0 0 139 45" fill="none" xmlns="http://www.w3.org/2000/svg">
<g clip-path="url(#clip0_315_4795)">
<path d="M0.375 4.98583V3.27276H7.751V4.98583H5.105V12H3.026V4.98583H0.375ZM10.865 8.26708V12H8.782V3.27276H10.797V6.65628H10.87C11.017 6.25287 11.259 5.93753 11.594 5.71026C11.932 5.48298 12.346 5.36935 12.834 5.36935C13.294 5.36935 13.695 5.47162 14.036 5.67617C14.377 5.87787 14.641 6.16338 14.828 6.5327C15.019 6.90202 15.113 7.33384 15.11 7.82815V12H13.026V8.23725C13.029 7.87361 12.938 7.58952 12.753 7.38497C12.569 7.18043 12.309 7.07815 11.973 7.07815C11.755 7.07815 11.561 7.12645 11.394 7.22304C11.229 7.31679 11.1 7.45173 11.006 7.62787C10.915 7.80401 10.868 8.01708 10.865 8.26708ZM19.47 12.1236C18.786 12.1236 18.195 11.9886 17.697 11.7188C17.203 11.446 16.822 11.0582 16.555 10.5554C16.291 10.0497 16.159 9.44889 16.159 8.75287C16.159 8.07673 16.293 7.48583 16.56 6.98014C16.827 6.47162 17.203 6.07673 17.689 5.79548C18.175 5.51139 18.747 5.36935 19.406 5.36935C19.872 5.36935 20.298 5.44179 20.685 5.58668C21.071 5.73156 21.405 5.94605 21.686 6.23014C21.967 6.51423 22.186 6.86509 22.342 7.2827C22.499 7.69747 22.577 8.17333 22.577 8.71026V9.23014H16.888V8.01992H20.638C20.635 7.79833 20.582 7.60088 20.48 7.42759C20.378 7.25429 20.237 7.11935 20.058 7.02276C19.882 6.92333 19.679 6.87361 19.449 6.87361C19.216 6.87361 19.007 6.92617 18.822 7.03128C18.638 7.13355 18.491 7.27418 18.384 7.45315C18.276 7.62929 18.219 7.82958 18.213 8.05401V9.28554C18.213 9.55259 18.266 9.78696 18.371 9.98867C18.476 10.1875 18.625 10.3423 18.818 10.4531C19.011 10.5639 19.241 10.6193 19.509 10.6193C19.693 10.6193 19.861 10.5937 20.011 10.5426C20.162 10.4915 20.291 10.4162 20.399 10.3168C20.507 10.2173 20.588 10.0952 20.642 9.95031L22.555 10.0057C22.476 10.4347 22.301 10.8082 22.031 11.1264C21.764 11.4418 21.413 11.6875 20.979 11.8636C20.544 12.0369 20.041 12.1236 19.47 12.1236ZM25.784 3.27276H28.141L29.986 6.92475H30.063L31.908 3.27276H34.265L31.073 9.08526V12H28.976V9.08526L25.784 3.27276ZM35.132 12V10.483L38.315 7.69605C38.554 7.48014 38.757 7.2827 38.924 7.10372C39.092 6.9219 39.22 6.74009 39.308 6.55827C39.396 6.37361 39.44 6.17333 39.44 5.95742C39.44 5.71594 39.387 5.50997 39.282 5.33952C39.177 5.16622 39.032 5.0327 38.848 4.93895C38.663 4.8452 38.451 4.79833 38.213 4.79833C37.971 4.79833 37.76 4.84804 37.578 4.94747C37.396 5.04406 37.254 5.18469 37.152 5.36935C37.052 5.55401 37.002 5.77844 37.002 6.04264H35.004C35.004 5.44889 35.137 4.93611 35.404 4.50429C35.672 4.07247 36.047 3.74009 36.529 3.50713C37.015 3.27134 37.579 3.15344 38.221 3.15344C38.883 3.15344 39.458 3.26423 39.947 3.48583C40.436 3.70742 40.814 4.01708 41.081 4.4148C41.35 4.80969 41.485 5.2685 41.485 5.79122C41.485 6.12361 41.419 6.45315 41.285 6.77986C41.152 7.10656 40.912 7.46736 40.565 7.86225C40.221 8.25713 39.733 8.73014 39.099 9.28128L38.055 10.2443V10.2997H41.592V12H35.132ZM42.801 12V3.27276H44.911V6.9631H45.026L47.911 3.27276H50.395L47.301 7.16764L50.45 12H47.928L45.754 8.56963L44.911 9.63497V12H42.801ZM8.582 21.4347H6.452C6.423 21.2159 6.365 21.0185 6.277 20.8423C6.189 20.6662 6.072 20.5156 5.928 20.3906C5.783 20.2656 5.611 20.1705 5.412 20.1051C5.216 20.0369 4.999 20.0028 4.76 20.0028C4.337 20.0028 3.972 20.1065 3.665 20.3139C3.361 20.5213 3.126 20.821 2.962 21.2131C2.8 21.6051 2.719 22.0795 2.719 22.6364C2.719 23.2159 2.801 23.7017 2.966 24.0938C3.134 24.483 3.368 24.777 3.669 24.9759C3.973 25.1719 4.332 25.2699 4.747 25.2699C4.98 25.2699 5.192 25.2401 5.382 25.1804C5.575 25.1207 5.744 25.0341 5.889 24.9205C6.037 24.804 6.158 24.6634 6.251 24.4986C6.348 24.331 6.415 24.142 6.452 23.9318L8.582 23.9446C8.545 24.331 8.433 24.7116 8.246 25.0866C8.061 25.4616 7.807 25.804 7.483 26.1136C7.159 26.4205 6.764 26.6648 6.298 26.8466C5.835 27.0284 5.304 27.1193 4.705 27.1193C3.915 27.1193 3.207 26.946 2.582 26.5994C1.96 26.25 1.469 25.7415 1.108 25.0739C0.747002 24.4062 0.567001 23.5937 0.567001 22.6364C0.567001 21.6761 0.749997 20.8622 1.116 20.1946C1.483 19.527 1.979 19.0199 2.604 18.6733C3.229 18.3267 3.929 18.1534 4.705 18.1534C5.233 18.1534 5.722 18.2273 6.17 18.375C6.619 18.5199 7.014 18.733 7.355 19.0142C7.696 19.2926 7.973 19.6349 8.186 20.0412C8.399 20.4474 8.531 20.9119 8.582 21.4347ZM11.873 23.267V27H9.789V18.2727H11.805V21.6562H11.877C12.025 21.2528 12.267 20.9375 12.602 20.7102C12.94 20.483 13.353 20.3693 13.842 20.3693C14.302 20.3693 14.703 20.4716 15.044 20.6761C15.385 20.8778 15.649 21.1634 15.836 21.5327C16.027 21.902 16.12 22.3338 16.118 22.8281V27H14.034V23.2372C14.037 22.8736 13.946 22.5895 13.761 22.3849C13.576 22.1804 13.316 22.0781 12.981 22.0781C12.762 22.0781 12.569 22.1264 12.402 22.223C12.237 22.3168 12.108 22.4517 12.014 22.6278C11.923 22.804 11.876 23.017 11.873 23.267ZM17.418 27V20.4545H19.502V27H17.418ZM18.462 19.6918C18.17 19.6918 17.918 19.5952 17.708 19.402C17.498 19.206 17.393 18.9702 17.393 18.6946C17.393 18.4219 17.498 18.1889 17.708 17.9957C17.918 17.7997 18.17 17.7017 18.462 17.7017C18.758 17.7017 19.009 17.7997 19.217 17.9957C19.427 18.1889 19.532 18.4219 19.532 18.6946C19.532 18.9702 19.427 19.206 19.217 19.402C19.009 19.5952 18.758 19.6918 18.462 19.6918ZM22.912 23.267V27H20.828V20.4545H22.81V21.6562H22.882C23.027 21.2557 23.275 20.9418 23.624 20.7145C23.973 20.4844 24.39 20.3693 24.873 20.3693C25.333 20.3693 25.732 20.473 26.07 20.6804C26.411 20.8849 26.675 21.1719 26.863 21.5412C27.053 21.9077 27.147 22.3366 27.144 22.8281V27H25.06V23.2372C25.063 22.8736 24.971 22.5895 24.783 22.3849C24.598 22.1804 24.341 22.0781 24.012 22.0781C23.793 22.0781 23.6 22.1264 23.432 22.223C23.267 22.3168 23.14 22.4517 23.049 22.6278C22.961 22.804 22.915 23.017 22.912 23.267ZM31.494 27.1236C30.809 27.1236 30.218 26.9886 29.721 26.7188C29.227 26.446 28.846 26.0582 28.579 25.5554C28.315 25.0497 28.183 24.4489 28.183 23.7528C28.183 23.0767 28.316 22.4858 28.583 21.9801C28.85 21.4716 29.227 21.0767 29.712 20.7955C30.198 20.5114 30.771 20.3693 31.43 20.3693C31.896 20.3693 32.322 20.4418 32.708 20.5866C33.094 20.7315 33.428 20.946 33.71 21.2301C33.991 21.5142 34.21 21.8651 34.366 22.2827C34.522 22.6974 34.6 23.1733 34.6 23.7102V24.2301H28.911V23.0199H32.661C32.658 22.7983 32.606 22.6009 32.504 22.4276C32.401 22.2543 32.261 22.1193 32.082 22.0227C31.906 21.9233 31.702 21.8736 31.472 21.8736C31.239 21.8736 31.031 21.9261 30.846 22.0312C30.661 22.1335 30.515 22.2741 30.407 22.4531C30.299 22.6293 30.242 22.8295 30.237 23.054V24.2855C30.237 24.5526 30.289 24.7869 30.394 24.9886C30.499 25.1875 30.648 25.3423 30.842 25.4531C31.035 25.5639 31.265 25.6193 31.532 25.6193C31.717 25.6193 31.884 25.5937 32.035 25.5426C32.185 25.4915 32.315 25.4162 32.423 25.3168C32.531 25.2173 32.612 25.0952 32.665 24.9503L34.579 25.0057C34.499 25.4347 34.325 25.8082 34.055 26.1264C33.788 26.4418 33.437 26.6875 33.002 26.8636C32.567 27.0369 32.065 27.1236 31.494 27.1236ZM41.379 22.4531L39.466 22.5043C39.446 22.3679 39.392 22.2472 39.304 22.142C39.216 22.0341 39.1 21.9503 38.958 21.8906C38.819 21.8281 38.657 21.7969 38.473 21.7969C38.231 21.7969 38.025 21.8452 37.855 21.9418C37.687 22.0384 37.605 22.169 37.608 22.3338C37.605 22.4616 37.656 22.5724 37.761 22.6662C37.869 22.7599 38.061 22.8352 38.336 22.892L39.598 23.1307C40.251 23.2557 40.737 23.4631 41.055 23.7528C41.376 24.0426 41.538 24.4261 41.541 24.9034C41.538 25.3523 41.404 25.7429 41.14 26.0753C40.879 26.4077 40.521 26.6662 40.066 26.8509C39.612 27.0327 39.092 27.1236 38.507 27.1236C37.572 27.1236 36.835 26.9318 36.295 26.5483C35.758 26.1619 35.451 25.6449 35.375 24.9972L37.433 24.946C37.478 25.1847 37.596 25.3665 37.787 25.4915C37.977 25.6165 38.22 25.679 38.515 25.679C38.782 25.679 39 25.6293 39.167 25.5298C39.335 25.4304 39.42 25.2983 39.423 25.1335C39.42 24.9858 39.355 24.8679 39.227 24.7798C39.099 24.6889 38.899 24.6179 38.626 24.5668L37.484 24.3494C36.828 24.2301 36.339 24.0099 36.018 23.6889C35.697 23.3651 35.538 22.9531 35.541 22.4531C35.538 22.0156 35.654 21.642 35.89 21.3324C36.126 21.0199 36.461 20.7812 36.896 20.6165C37.331 20.4517 37.843 20.3693 38.434 20.3693C39.321 20.3693 40.02 20.5554 40.531 20.9276C41.042 21.2969 41.325 21.8054 41.379 22.4531ZM45.626 27.1236C44.942 27.1236 44.351 26.9886 43.854 26.7188C43.359 26.446 42.979 26.0582 42.712 25.5554C42.447 25.0497 42.315 24.4489 42.315 23.7528C42.315 23.0767 42.449 22.4858 42.716 21.9801C42.983 21.4716 43.359 21.0767 43.845 20.7955C44.331 20.5114 44.903 20.3693 45.562 20.3693C46.028 20.3693 46.455 20.4418 46.841 20.5866C47.227 20.7315 47.561 20.946 47.842 21.2301C48.124 21.5142 48.342 21.8651 48.499 22.2827C48.655 22.6974 48.733 23.1733 48.733 23.7102V24.2301H43.044V23.0199H46.794C46.791 22.7983 46.739 22.6009 46.636 22.4276C46.534 22.2543 46.393 22.1193 46.214 22.0227C46.038 21.9233 45.835 21.8736 45.605 21.8736C45.372 21.8736 45.163 21.9261 44.979 22.0312C44.794 22.1335 44.648 22.2741 44.54 22.4531C44.432 22.6293 44.375 22.8295 44.369 23.054V24.2855C44.369 24.5526 44.422 24.7869 44.527 24.9886C44.632 25.1875 44.781 25.3423 44.974 25.4531C45.168 25.5639 45.398 25.6193 45.665 25.6193C45.849 25.6193 46.017 25.5937 46.168 25.5426C46.318 25.4915 46.447 25.4162 46.555 25.3168C46.663 25.2173 46.744 25.0952 46.798 24.9503L48.712 25.0057C48.632 25.4347 48.457 25.8082 48.188 26.1264C47.92 26.4418 47.57 26.6875 47.135 26.8636C46.7 27.0369 46.197 27.1236 45.626 27.1236ZM53.986 22.6662V24.2727H49.946V22.6662H53.986ZM57.541 18.2727V27H55.457V18.2727H57.541ZM60.713 27.1108C60.295 27.1108 59.924 27.0412 59.6 26.902C59.279 26.7599 59.025 26.5469 58.838 26.2628C58.653 25.9759 58.561 25.6165 58.561 25.1847C58.561 24.821 58.625 24.5142 58.752 24.2642C58.88 24.0142 59.056 23.8111 59.281 23.6548C59.505 23.4986 59.764 23.3807 60.056 23.3011C60.349 23.2187 60.662 23.1634 60.994 23.1349C61.366 23.1009 61.666 23.0653 61.893 23.0284C62.12 22.9886 62.285 22.9332 62.387 22.8622C62.493 22.7884 62.545 22.6847 62.545 22.5511V22.5298C62.545 22.3111 62.47 22.142 62.319 22.0227C62.169 21.9034 61.966 21.8438 61.71 21.8438C61.434 21.8438 61.213 21.9034 61.045 22.0227C60.877 22.142 60.771 22.3068 60.725 22.517L58.804 22.4489C58.86 22.0511 59.007 21.696 59.243 21.3835C59.481 21.0682 59.808 20.821 60.223 20.642C60.64 20.4602 61.142 20.3693 61.727 20.3693C62.145 20.3693 62.529 20.419 62.882 20.5185C63.234 20.6151 63.541 20.7571 63.802 20.9446C64.064 21.1293 64.265 21.3565 64.407 21.6264C64.552 21.8963 64.625 22.2045 64.625 22.5511V27H62.664V26.0881H62.613C62.497 26.3097 62.348 26.4972 62.166 26.6506C61.987 26.804 61.775 26.919 61.531 26.9957C61.289 27.0724 61.017 27.1108 60.713 27.1108ZM61.356 25.7472C61.581 25.7472 61.782 25.7017 61.961 25.6108C62.143 25.5199 62.288 25.3949 62.396 25.2358C62.504 25.0739 62.558 24.8864 62.558 24.6733V24.0511C62.498 24.0824 62.426 24.1108 62.341 24.1364C62.258 24.1619 62.167 24.1861 62.068 24.2088C61.968 24.2315 61.866 24.2514 61.761 24.2685C61.656 24.2855 61.555 24.3011 61.458 24.3153C61.262 24.3466 61.095 24.3949 60.956 24.4602C60.819 24.5256 60.714 24.6108 60.64 24.7159C60.569 24.8182 60.534 24.9403 60.534 25.0824C60.534 25.2983 60.61 25.4631 60.764 25.5767C60.92 25.6903 61.118 25.7472 61.356 25.7472ZM67.983 23.267V27H65.899V20.4545H67.88V21.6562H67.953C68.098 21.2557 68.345 20.9418 68.694 20.7145C69.044 20.4844 69.46 20.3693 69.943 20.3693C70.403 20.3693 70.802 20.473 71.14 20.6804C71.481 20.8849 71.745 21.1719 71.933 21.5412C72.123 21.9077 72.217 22.3366 72.214 22.8281V27H70.13V23.2372C70.133 22.8736 70.041 22.5895 69.853 22.3849C69.669 22.1804 69.412 22.0781 69.082 22.0781C68.863 22.0781 68.67 22.1264 68.502 22.223C68.338 22.3168 68.21 22.4517 68.119 22.6278C68.031 22.804 67.985 23.017 67.983 23.267ZM76.555 29.5909C75.933 29.5909 75.401 29.5043 74.957 29.331C74.514 29.1577 74.166 28.9205 73.913 28.6193C73.661 28.3182 73.509 27.9773 73.457 27.5966L75.43 27.4858C75.467 27.6193 75.536 27.7358 75.635 27.8352C75.737 27.9347 75.869 28.0114 76.031 28.0653C76.196 28.1193 76.389 28.1463 76.611 28.1463C76.96 28.1463 77.249 28.0611 77.476 27.8906C77.706 27.723 77.821 27.429 77.821 27.0085V25.858H77.749C77.666 26.0597 77.541 26.2401 77.374 26.3991C77.206 26.5582 76.997 26.6832 76.747 26.7741C76.5 26.8651 76.216 26.9105 75.895 26.9105C75.418 26.9105 74.98 26.7997 74.582 26.5781C74.188 26.3537 73.871 26.0071 73.632 25.5384C73.396 25.0668 73.278 24.4602 73.278 23.7188C73.278 22.9545 73.401 22.3253 73.645 21.831C73.889 21.3338 74.209 20.9659 74.604 20.7273C75.001 20.4886 75.429 20.3693 75.886 20.3693C76.23 20.3693 76.524 20.429 76.768 20.5483C77.016 20.6648 77.219 20.8153 77.378 21C77.537 21.1847 77.658 21.3764 77.74 21.5753H77.8V20.4545H79.875V27.0256C79.875 27.5795 79.736 28.0469 79.457 28.4276C79.179 28.8082 78.79 29.0966 78.29 29.2926C77.79 29.4915 77.212 29.5909 76.555 29.5909ZM76.619 25.3935C76.872 25.3935 77.088 25.3267 77.267 25.1932C77.446 25.0597 77.584 24.8679 77.68 24.6179C77.777 24.3679 77.825 24.0682 77.825 23.7188C77.825 23.3636 77.777 23.0582 77.68 22.8026C77.587 22.544 77.449 22.3452 77.267 22.206C77.088 22.0668 76.872 21.9972 76.619 21.9972C76.361 21.9972 76.142 22.0682 75.963 22.2102C75.784 22.3523 75.648 22.5526 75.554 22.8111C75.463 23.0668 75.418 23.3693 75.418 23.7188C75.418 24.0682 75.464 24.3679 75.558 24.6179C75.652 24.8679 75.787 25.0597 75.963 25.1932C76.142 25.3267 76.361 25.3935 76.619 25.3935ZM85.426 24.1747V20.4545H87.506V27H85.52V25.7812H85.452C85.307 26.1818 85.06 26.5 84.711 26.7358C84.364 26.9687 83.945 27.0852 83.453 27.0852C83.007 27.0852 82.615 26.983 82.277 26.7784C81.939 26.5739 81.676 26.2884 81.489 25.9219C81.301 25.5526 81.206 25.1207 81.203 24.6264V20.4545H83.287V24.2173C83.29 24.5724 83.384 24.8523 83.569 25.0568C83.753 25.2614 84.005 25.3636 84.323 25.3636C84.53 25.3636 84.716 25.3182 84.881 25.2273C85.049 25.1335 85.181 24.9986 85.277 24.8224C85.377 24.6435 85.426 24.4276 85.426 24.1747ZM90.678 27.1108C90.26 27.1108 89.889 27.0412 89.565 26.902C89.244 26.7599 88.99 26.5469 88.803 26.2628C88.618 25.9759 88.526 25.6165 88.526 25.1847C88.526 24.821 88.589 24.5142 88.717 24.2642C88.845 24.0142 89.021 23.8111 89.246 23.6548C89.47 23.4986 89.729 23.3807 90.021 23.3011C90.314 23.2187 90.626 23.1634 90.959 23.1349C91.331 23.1009 91.631 23.0653 91.858 23.0284C92.085 22.9886 92.25 22.9332 92.352 22.8622C92.457 22.7884 92.51 22.6847 92.51 22.5511V22.5298C92.51 22.3111 92.435 22.142 92.284 22.0227C92.134 21.9034 91.93 21.8438 91.675 21.8438C91.399 21.8438 91.178 21.9034 91.01 22.0227C90.842 22.142 90.736 22.3068 90.69 22.517L88.768 22.4489C88.825 22.0511 88.972 21.696 89.207 21.3835C89.446 21.0682 89.773 20.821 90.188 20.642C90.605 20.4602 91.107 20.3693 91.692 20.3693C92.109 20.3693 92.494 20.419 92.847 20.5185C93.199 20.6151 93.506 20.7571 93.767 20.9446C94.028 21.1293 94.23 21.3565 94.372 21.6264C94.517 21.8963 94.589 22.2045 94.589 22.5511V27H92.629V26.0881H92.578C92.462 26.3097 92.313 26.4972 92.131 26.6506C91.952 26.804 91.74 26.919 91.496 26.9957C91.254 27.0724 90.982 27.1108 90.678 27.1108ZM91.321 25.7472C91.545 25.7472 91.747 25.7017 91.926 25.6108C92.108 25.5199 92.253 25.3949 92.361 25.2358C92.469 25.0739 92.523 24.8864 92.523 24.6733V24.0511C92.463 24.0824 92.391 24.1108 92.305 24.1364C92.223 24.1619 92.132 24.1861 92.033 24.2088C91.933 24.2315 91.831 24.2514 91.726 24.2685C91.621 24.2855 91.52 24.3011 91.423 24.3153C91.227 24.3466 91.06 24.3949 90.92 24.4602C90.784 24.5256 90.679 24.6108 90.605 24.7159C90.534 24.8182 90.499 24.9403 90.499 25.0824C90.499 25.2983 90.575 25.4631 90.729 25.5767C90.885 25.6903 91.082 25.7472 91.321 25.7472ZM98.915 29.5909C98.293 29.5909 97.76 29.5043 97.317 29.331C96.874 29.1577 96.526 28.9205 96.273 28.6193C96.02 28.3182 95.868 27.9773 95.817 27.5966L97.79 27.4858C97.827 27.6193 97.895 27.7358 97.994 27.8352C98.097 27.9347 98.229 28.0114 98.391 28.0653C98.555 28.1193 98.749 28.1463 98.97 28.1463C99.32 28.1463 99.608 28.0611 99.835 27.8906C100.065 27.723 100.18 27.429 100.18 27.0085V25.858H100.108C100.026 26.0597 99.901 26.2401 99.733 26.3991C99.565 26.5582 99.357 26.6832 99.107 26.7741C98.859 26.8651 98.575 26.9105 98.254 26.9105C97.777 26.9105 97.339 26.7997 96.942 26.5781C96.547 26.3537 96.23 26.0071 95.991 25.5384C95.756 25.0668 95.638 24.4602 95.638 23.7188C95.638 22.9545 95.76 22.3253 96.004 21.831C96.249 21.3338 96.568 20.9659 96.963 20.7273C97.361 20.4886 97.788 20.3693 98.246 20.3693C98.589 20.3693 98.884 20.429 99.128 20.5483C99.375 20.6648 99.578 20.8153 99.737 21C99.896 21.1847 100.017 21.3764 100.099 21.5753H100.159V20.4545H102.234V27.0256C102.234 27.5795 102.095 28.0469 101.817 28.4276C101.538 28.8082 101.149 29.0966 100.649 29.2926C100.149 29.4915 99.571 29.5909 98.915 29.5909ZM98.979 25.3935C99.232 25.3935 99.447 25.3267 99.626 25.1932C99.805 25.0597 99.943 24.8679 100.04 24.6179C100.136 24.3679 100.185 24.0682 100.185 23.7188C100.185 23.3636 100.136 23.0582 100.04 22.8026C99.946 22.544 99.808 22.3452 99.626 22.206C99.447 22.0668 99.232 21.9972 98.979 21.9972C98.72 21.9972 98.501 22.0682 98.322 22.2102C98.143 22.3523 98.007 22.5526 97.913 22.8111C97.822 23.0668 97.777 23.3693 97.777 23.7188C97.777 24.0682 97.824 24.3679 97.918 24.6179C98.011 24.8679 98.146 25.0597 98.322 25.1932C98.501 25.3267 98.72 25.3935 98.979 25.3935ZM106.623 27.1236C105.938 27.1236 105.347 26.9886 104.85 26.7188C104.355 26.446 103.975 26.0582 103.708 25.5554C103.444 25.0497 103.311 24.4489 103.311 23.7528C103.311 23.0767 103.445 22.4858 103.712 21.9801C103.979 21.4716 104.355 21.0767 104.841 20.7955C105.327 20.5114 105.9 20.3693 106.559 20.3693C107.025 20.3693 107.451 20.4418 107.837 20.5866C108.223 20.7315 108.557 20.946 108.838 21.2301C109.12 21.5142 109.338 21.8651 109.495 22.2827C109.651 22.6974 109.729 23.1733 109.729 23.7102V24.2301H104.04V23.0199H107.79C107.787 22.7983 107.735 22.6009 107.632 22.4276C107.53 22.2543 107.39 22.1193 107.211 22.0227C107.034 21.9233 106.831 21.8736 106.601 21.8736C106.368 21.8736 106.159 21.9261 105.975 22.0312C105.79 22.1335 105.644 22.2741 105.536 22.4531C105.428 22.6293 105.371 22.8295 105.365 23.054V24.2855C105.365 24.5526 105.418 24.7869 105.523 24.9886C105.628 25.1875 105.777 25.3423 105.971 25.4531C106.164 25.5639 106.394 25.6193 106.661 25.6193C106.846 25.6193 107.013 25.5937 107.164 25.5426C107.314 25.4915 107.444 25.4162 107.551 25.3168C107.659 25.2173 107.74 25.0952 107.794 24.9503L109.708 25.0057C109.628 25.4347 109.453 25.8082 109.184 26.1264C108.917 26.4418 108.566 26.6875 108.131 26.8636C107.696 27.0369 107.194 27.1236 106.623 27.1236ZM115.464 27L112.924 18.2727H115.255L116.572 23.9915H116.644L118.148 18.2727H120.049L121.553 24.0043H121.626L122.947 18.2727H125.273L122.738 27H120.705L119.133 21.7074H119.065L117.492 27H115.464ZM128.478 27.1236C127.793 27.1236 127.202 26.9886 126.705 26.7188C126.211 26.446 125.83 26.0582 125.563 25.5554C125.299 25.0497 125.167 24.4489 125.167 23.7528C125.167 23.0767 125.3 22.4858 125.567 21.9801C125.835 21.4716 126.211 21.0767 126.697 20.7955C127.183 20.5114 127.755 20.3693 128.414 20.3693C128.88 20.3693 129.306 20.4418 129.692 20.5866C130.079 20.7315 130.413 20.946 130.694 21.2301C130.975 21.5142 131.194 21.8651 131.35 22.2827C131.506 22.6974 131.585 23.1733 131.585 23.7102V24.2301H125.896V23.0199H129.646C129.643 22.7983 129.59 22.6009 129.488 22.4276C129.386 22.2543 129.245 22.1193 129.066 22.0227C128.89 21.9233 128.687 21.8736 128.457 21.8736C128.224 21.8736 128.015 21.9261 127.83 22.0312C127.646 22.1335 127.499 22.2741 127.391 22.4531C127.283 22.6293 127.227 22.8295 127.221 23.054V24.2855C127.221 24.5526 127.273 24.7869 127.379 24.9886C127.484 25.1875 127.633 25.3423 127.826 25.4531C128.019 25.5639 128.249 25.6193 128.516 25.6193C128.701 25.6193 128.869 25.5937 129.019 25.5426C129.17 25.4915 129.299 25.4162 129.407 25.3168C129.515 25.2173 129.596 25.0952 129.65 24.9503L131.563 25.0057C131.484 25.4347 131.309 25.8082 131.039 26.1264C130.772 26.4418 130.421 26.6875 129.987 26.8636C129.552 27.0369 129.049 27.1236 128.478 27.1236ZM132.649 27V18.2727H134.733V21.5753H134.775C134.86 21.3764 134.981 21.1847 135.137 21C135.297 20.8153 135.498 20.6648 135.743 20.5483C135.99 20.429 136.285 20.3693 136.629 20.3693C137.083 20.3693 137.508 20.4886 137.903 20.7273C138.301 20.9659 138.622 21.3338 138.866 21.831C139.11 22.3281 139.233 22.9616 139.233 23.7315C139.233 24.473 139.115 25.0938 138.879 25.5938C138.646 26.0938 138.331 26.4688 137.933 26.7188C137.538 26.9688 137.099 27.0938 136.616 27.0938C136.287 27.0938 136.001 27.0398 135.76 26.9318C135.518 26.8239 135.315 26.6818 135.15 26.5057C134.988 26.3295 134.863 26.1406 134.775 25.9389H134.711V27H132.649ZM134.69 23.7273C134.69 24.0795 134.737 24.3864 134.831 24.6477C134.927 24.9091 135.065 25.1122 135.244 25.2571C135.426 25.3991 135.643 25.4702 135.896 25.4702C136.152 25.4702 136.369 25.3991 136.548 25.2571C136.727 25.1122 136.862 24.9091 136.953 24.6477C137.047 24.3864 137.093 24.0795 137.093 23.7273C137.093 23.375 137.047 23.0696 136.953 22.8111C136.862 22.5526 136.727 22.3523 136.548 22.2102C136.372 22.0682 136.154 21.9972 135.896 21.9972C135.64 21.9972 135.423 22.0668 135.244 22.206C135.065 22.3452 134.927 22.544 134.831 22.8026C134.737 23.0611 134.69 23.3693 134.69 23.7273ZM5.378 35.8892C5.349 35.5767 5.223 35.3338 4.999 35.1605C4.777 34.9844 4.46 34.8963 4.048 34.8963C3.776 34.8963 3.548 34.9318 3.366 35.0028C3.185 35.0739 3.048 35.1719 2.957 35.2969C2.866 35.419 2.82 35.5597 2.817 35.7188C2.811 35.8494 2.837 35.9645 2.893 36.0639C2.953 36.1634 3.038 36.2514 3.149 36.3281C3.263 36.402 3.399 36.4673 3.558 36.5241C3.717 36.581 3.896 36.6307 4.095 36.6733L4.845 36.8438C5.277 36.9375 5.658 37.0625 5.987 37.2188C6.32 37.375 6.598 37.5611 6.822 37.777C7.05 37.9929 7.222 38.2415 7.338 38.5227C7.455 38.804 7.514 39.1193 7.517 39.4688C7.514 40.0199 7.375 40.4929 7.099 40.8878C6.824 41.2827 6.428 41.5852 5.911 41.7955C5.396 42.0057 4.776 42.1108 4.048 42.1108C3.318 42.1108 2.682 42.0014 2.139 41.7827C1.597 41.5639 1.175 41.2315 0.874001 40.7855C0.572001 40.3395 0.417997 39.7756 0.408997 39.0938H2.429C2.446 39.375 2.521 39.6094 2.655 39.7969C2.788 39.9844 2.972 40.1264 3.205 40.223C3.44 40.3196 3.713 40.3679 4.023 40.3679C4.307 40.3679 4.548 40.3295 4.747 40.2528C4.949 40.1761 5.104 40.0696 5.212 39.9332C5.32 39.7969 5.375 39.6406 5.378 39.4645C5.375 39.2997 5.324 39.1591 5.224 39.0426C5.125 38.9233 4.972 38.821 4.764 38.7358C4.56 38.6477 4.298 38.5668 3.98 38.4929L3.068 38.2798C2.312 38.1065 1.717 37.8267 1.283 37.4403C0.847997 37.0511 0.632002 36.5256 0.635002 35.8636C0.632002 35.3239 0.777 34.8509 1.07 34.4446C1.362 34.0384 1.767 33.7216 2.284 33.4943C2.801 33.267 3.391 33.1534 4.053 33.1534C4.729 33.1534 5.315 33.2685 5.812 33.4986C6.312 33.7259 6.7 34.0455 6.976 34.4574C7.251 34.8693 7.392 35.3466 7.398 35.8892H5.378ZM10.666 38.267V42H8.582V33.2727H10.598V36.6562H10.67C10.818 36.2528 11.06 35.9375 11.395 35.7102C11.733 35.483 12.146 35.3693 12.635 35.3693C13.095 35.3693 13.496 35.4716 13.837 35.6761C14.178 35.8778 14.442 36.1634 14.629 36.5327C14.82 36.902 14.913 37.3338 14.911 37.8281V42H12.827V38.2372C12.83 37.8736 12.739 37.5895 12.554 37.3849C12.369 37.1804 12.109 37.0781 11.774 37.0781C11.555 37.0781 11.362 37.1264 11.195 37.223C11.03 37.3168 10.901 37.4517 10.807 37.6278C10.716 37.804 10.669 38.017 10.666 38.267ZM19.267 42.1236C18.579 42.1236 17.988 41.983 17.494 41.7017C17.002 41.4176 16.623 41.0227 16.356 40.517C16.092 40.0085 15.96 39.419 15.96 38.7486C15.96 38.0753 16.092 37.4858 16.356 36.9801C16.623 36.4716 17.002 36.0767 17.494 35.7955C17.988 35.5114 18.579 35.3693 19.267 35.3693C19.954 35.3693 20.544 35.5114 21.035 35.7955C21.529 36.0767 21.909 36.4716 22.173 36.9801C22.44 37.4858 22.574 38.0753 22.574 38.7486C22.574 39.419 22.44 40.0085 22.173 40.517C21.909 41.0227 21.529 41.4176 21.035 41.7017C20.544 41.983 19.954 42.1236 19.267 42.1236ZM19.279 40.5511C19.529 40.5511 19.741 40.4744 19.914 40.321C20.088 40.1676 20.22 39.9545 20.311 39.6818C20.404 39.4091 20.451 39.0937 20.451 38.7358C20.451 38.3722 20.404 38.054 20.311 37.7812C20.22 37.5085 20.088 37.2955 19.914 37.142C19.741 36.9886 19.529 36.9119 19.279 36.9119C19.021 36.9119 18.802 36.9886 18.623 37.142C18.447 37.2955 18.312 37.5085 18.218 37.7812C18.127 38.054 18.082 38.3722 18.082 38.7358C18.082 39.0937 18.127 39.4091 18.218 39.6818C18.312 39.9545 18.447 40.1676 18.623 40.321C18.802 40.4744 19.021 40.5511 19.279 40.5511ZM24.723 42L23.019 35.4545H25.111L25.993 39.6477H26.049L26.995 35.4545H29.036L30.007 39.6179H30.063L30.919 35.4545H33.012L31.303 42H29.074L28.051 38.1861H27.979L26.956 42H24.723ZM36.763 42.1236C36.072 42.1236 35.48 41.9815 34.986 41.6974C34.494 41.4134 34.116 41.0185 33.852 40.5128C33.588 40.0043 33.456 39.4162 33.456 38.7486C33.456 38.0781 33.588 37.4901 33.852 36.9844C34.119 36.4759 34.499 36.0795 34.99 35.7955C35.484 35.5114 36.074 35.3693 36.759 35.3693C37.364 35.3693 37.891 35.4787 38.339 35.6974C38.791 35.9162 39.143 36.2259 39.396 36.6264C39.652 37.0241 39.787 37.4915 39.801 38.0284H37.854C37.814 37.6932 37.7 37.4304 37.513 37.2401C37.328 37.0497 37.087 36.9545 36.788 36.9545C36.547 36.9545 36.335 37.0227 36.153 37.1591C35.972 37.2926 35.83 37.4915 35.727 37.7557C35.628 38.017 35.578 38.3409 35.578 38.7273C35.578 39.1136 35.628 39.4403 35.727 39.7074C35.83 39.9716 35.972 40.1719 36.153 40.3082C36.335 40.4418 36.547 40.5085 36.788 40.5085C36.982 40.5085 37.152 40.4673 37.3 40.3849C37.45 40.3026 37.574 40.1818 37.67 40.0227C37.767 39.8608 37.828 39.6648 37.854 39.4347H39.801C39.781 39.9744 39.646 40.446 39.396 40.8494C39.149 41.2528 38.801 41.5668 38.352 41.7912C37.906 42.0128 37.376 42.1236 36.763 42.1236ZM42.713 42.1108C42.295 42.1108 41.924 42.0412 41.6 41.902C41.279 41.7599 41.025 41.5469 40.838 41.2628C40.653 40.9759 40.561 40.6165 40.561 40.1847C40.561 39.821 40.625 39.5142 40.752 39.2642C40.88 39.0142 41.056 38.8111 41.281 38.6548C41.505 38.4986 41.764 38.3807 42.056 38.3011C42.349 38.2187 42.662 38.1634 42.994 38.1349C43.366 38.1009 43.666 38.0653 43.893 38.0284C44.12 37.9886 44.285 37.9332 44.387 37.8622C44.493 37.7884 44.545 37.6847 44.545 37.5511V37.5298C44.545 37.3111 44.47 37.142 44.319 37.0227C44.169 36.9034 43.966 36.8438 43.71 36.8438C43.434 36.8438 43.213 36.9034 43.045 37.0227C42.877 37.142 42.771 37.3068 42.725 37.517L40.804 37.4489C40.86 37.0511 41.007 36.696 41.243 36.3835C41.481 36.0682 41.808 35.821 42.223 35.642C42.64 35.4602 43.142 35.3693 43.727 35.3693C44.145 35.3693 44.529 35.419 44.882 35.5185C45.234 35.6151 45.541 35.7571 45.802 35.9446C46.064 36.1293 46.265 36.3565 46.407 36.6264C46.552 36.8963 46.625 37.2045 46.625 37.5511V42H44.664V41.0881H44.613C44.497 41.3097 44.348 41.4972 44.166 41.6506C43.987 41.804 43.775 41.919 43.531 41.9957C43.289 42.0724 43.017 42.1108 42.713 42.1108ZM43.356 40.7472C43.581 40.7472 43.782 40.7017 43.961 40.6108C44.143 40.5199 44.288 40.3949 44.396 40.2358C44.504 40.0739 44.558 39.8864 44.558 39.6733V39.0511C44.498 39.0824 44.426 39.1108 44.341 39.1364C44.258 39.1619 44.167 39.1861 44.068 39.2088C43.968 39.2315 43.866 39.2514 43.761 39.2685C43.656 39.2855 43.555 39.3011 43.458 39.3153C43.262 39.3466 43.095 39.3949 42.956 39.4602C42.819 39.5256 42.714 39.6108 42.64 39.7159C42.569 39.8182 42.534 39.9403 42.534 40.0824C42.534 40.2983 42.61 40.4631 42.764 40.5767C42.92 40.6903 43.118 40.7472 43.356 40.7472ZM53.613 37.4531L51.7 37.5043C51.68 37.3679 51.626 37.2472 51.538 37.142C51.45 37.0341 51.335 36.9503 51.193 36.8906C51.054 36.8281 50.892 36.7969 50.707 36.7969C50.466 36.7969 50.26 36.8452 50.089 36.9418C49.922 37.0384 49.839 37.169 49.842 37.3338C49.839 37.4616 49.89 37.5724 49.995 37.6662C50.103 37.7599 50.295 37.8352 50.571 37.892L51.832 38.1307C52.485 38.2557 52.971 38.4631 53.289 38.7528C53.61 39.0426 53.772 39.4261 53.775 39.9034C53.772 40.3523 53.639 40.7429 53.375 41.0753C53.113 41.4077 52.755 41.6662 52.301 41.8509C51.846 42.0327 51.326 42.1236 50.741 42.1236C49.806 42.1236 49.069 41.9318 48.529 41.5483C47.993 41.1619 47.686 40.6449 47.609 39.9972L49.667 39.946C49.713 40.1847 49.831 40.3665 50.021 40.4915C50.211 40.6165 50.454 40.679 50.75 40.679C51.017 40.679 51.234 40.6293 51.402 40.5298C51.569 40.4304 51.654 40.2983 51.657 40.1335C51.654 39.9858 51.589 39.8679 51.461 39.7798C51.333 39.6889 51.133 39.6179 50.86 39.5668L49.718 39.3494C49.062 39.2301 48.574 39.0099 48.252 38.6889C47.931 38.3651 47.772 37.9531 47.775 37.4531C47.772 37.0156 47.889 36.642 48.125 36.3324C48.36 36.0199 48.696 35.7812 49.13 35.6165C49.565 35.4517 50.078 35.3693 50.669 35.3693C51.555 35.3693 52.254 35.5554 52.765 35.9276C53.277 36.2969 53.559 36.8054 53.613 37.4531ZM57.861 42.1236C57.176 42.1236 56.585 41.9886 56.088 41.7188C55.594 41.446 55.213 41.0582 54.946 40.5554C54.682 40.0497 54.55 39.4489 54.55 38.7528C54.55 38.0767 54.683 37.4858 54.95 36.9801C55.217 36.4716 55.594 36.0767 56.08 35.7955C56.565 35.5114 57.138 35.3693 57.797 35.3693C58.263 35.3693 58.689 35.4418 59.075 35.5866C59.462 35.7315 59.795 35.946 60.077 36.2301C60.358 36.5142 60.577 36.8651 60.733 37.2827C60.889 37.6974 60.967 38.1733 60.967 38.7102V39.2301H55.278V38.0199H59.028C59.026 37.7983 58.973 37.6009 58.871 37.4276C58.768 37.2543 58.628 37.1193 58.449 37.0227C58.273 36.9233 58.07 36.8736 57.839 36.8736C57.607 36.8736 57.398 36.9261 57.213 37.0312C57.028 37.1335 56.882 37.2741 56.774 37.4531C56.666 37.6293 56.609 37.8295 56.604 38.054V39.2855C56.604 39.5526 56.656 39.7869 56.761 39.9886C56.866 40.1875 57.016 40.3423 57.209 40.4531C57.402 40.5639 57.632 40.6193 57.899 40.6193C58.084 40.6193 58.251 40.5937 58.402 40.5426C58.553 40.4915 58.682 40.4162 58.79 40.3168C58.898 40.2173 58.979 40.0952 59.033 39.9503L60.946 40.0057C60.866 40.4347 60.692 40.8082 60.422 41.1264C60.155 41.4418 59.804 41.6875 59.369 41.8636C58.935 42.0369 58.432 42.1236 57.861 42.1236Z" fill="black"/>
</g>
<defs>
<clipPath id="clip0_315_4795">
<rect width="139" height="45" fill="white"/>
</clipPath>
</defs>
</svg>
