<svg width="48" height="45" viewBox="0 0 48 45" fill="none" xmlns="http://www.w3.org/2000/svg">
<g clip-path="url(#clip0_315_4803)">
<path d="M0.539955 6.50404V7.90804H11.472V6.50404H0.539955ZM5.18395 3.80404V13.068H6.73196V3.80404H5.18395ZM9.27596 1.89604C7.30796 2.49604 4.07996 2.94004 1.19995 3.16804C1.35595 3.49204 1.54795 4.08004 1.58395 4.44004C4.52395 4.23604 7.90795 3.81604 10.368 3.12004L9.27596 1.89604ZM12.504 4.95604V6.21604H16.836V4.95604H12.504ZM12.804 2.56804V3.81604H16.656V2.56804H12.804ZM15.84 6.80404V11.232H16.752V6.80404H15.84ZM14.136 5.58004V13.08H15.324V5.58004H14.136ZM12.684 6.82804V8.23204C12.684 9.27604 12.624 10.5 12.252 11.472C12.516 11.604 12.9 11.892 13.08 12.096C13.548 10.956 13.62 9.51604 13.62 8.26804V6.82804H12.684ZM16.896 2.56804V3.56404H23.4V2.56804H16.896ZM17.184 4.06804V5.06404H23.208V4.06804H17.184ZM16.836 8.62804V9.70804H23.652V8.62804H16.836ZM17.832 11.748V12.768H22.632V11.748H17.832ZM19.44 1.82404V4.66804H20.868V1.82404H19.44ZM18.708 6.33604H21.66V6.93604H18.708V6.33604ZM17.436 5.43604V7.84804H22.992V5.43604H17.436ZM17.364 10.092V13.068H18.636V11.052H21.78V13.056H23.124V10.092H17.364ZM18.012 7.94404C18.156 8.25604 18.312 8.70004 18.384 8.98804L19.56 8.67604C19.488 8.41204 19.296 7.98004 19.14 7.68004L18.012 7.94404ZM21.24 7.57204C21.144 7.89604 20.928 8.36404 20.772 8.70004L21.792 9.01204C21.984 8.72404 22.224 8.34004 22.5 7.90804L21.24 7.57204ZM26.976 1.76404C26.46 3.32404 25.524 4.86004 24.444 5.79604C24.792 6.00004 25.404 6.48004 25.68 6.73204C26.748 5.65204 27.804 3.92404 28.44 2.13604L26.976 1.76404ZM27.228 3.13204L26.532 4.52404H34.86V3.13204H27.228ZM26.376 5.96404V9.82804H27.828V7.30804H34.584V5.96404H26.376ZM24.48 9.12004V10.512H35.52V9.12004H24.48ZM29.904 3.85204V13.08H31.392V3.85204H29.904ZM1.04395 18.9V24.984H2.49595V20.316H9.45596V24.924H10.968V18.9H1.04395ZM1.79995 22.896V24.312H10.296V22.896H1.79995ZM5.20795 16.812V28.08H6.73196V16.812H5.20795ZM20.292 19.488C19.044 23.4 16.464 25.62 12.312 26.712C12.6 27.06 13.056 27.756 13.224 28.116C17.52 26.772 20.316 24.252 21.828 19.932L20.292 19.488ZM15.66 19.584L14.22 20.016C15.72 24.168 18.192 26.916 22.692 28.092C22.92 27.672 23.388 26.988 23.736 26.652C19.464 25.692 16.872 23.136 15.66 19.584ZM12.528 18.708V20.124H23.52V18.708H12.528ZM17.244 16.812V19.572H18.732V16.812H17.244ZM31.464 21.648V22.956H32.676V21.648H31.464ZM32.712 18.792C32.628 19.284 32.424 19.98 32.256 20.448L33.072 20.724C33.276 20.316 33.528 19.68 33.804 19.116L32.712 18.792ZM30.48 19.164C30.684 19.644 30.864 20.304 30.9 20.724L31.824 20.388C31.764 19.98 31.572 19.344 31.332 18.864L30.48 19.164ZM28.86 17.328V28.104H30.144V18.576H34.464V17.328H28.86ZM34.032 17.328V26.652C34.032 26.82 33.972 26.88 33.804 26.892C33.636 26.892 33.096 26.892 32.604 26.868C32.772 27.204 32.952 27.756 32.988 28.092C33.828 28.092 34.404 28.056 34.812 27.864C35.208 27.648 35.328 27.312 35.328 26.664V17.328H34.032ZM30.444 20.616V21.684H33.708V20.616H30.444ZM30.408 22.632V23.712H33.732V22.632H30.408ZM30.804 23.196V24.768C30.804 25.896 31.044 26.292 32.196 26.292C32.328 26.292 32.844 26.292 33 26.292C33.264 26.292 33.516 26.28 33.696 26.208C33.66 25.932 33.624 25.404 33.6 25.092C33.444 25.14 33.156 25.164 32.988 25.164C32.844 25.164 32.328 25.164 32.184 25.164C32.028 25.164 32.004 25.068 32.004 24.78V23.196H30.804ZM26.148 16.824C25.872 17.652 25.356 18.816 24.936 19.536L25.896 19.932C26.352 19.26 26.904 18.192 27.396 17.256L26.148 16.824ZM27.504 18.24C26.868 19.524 25.776 21.276 24.876 22.356L25.704 22.824C26.628 21.792 27.792 20.124 28.668 18.78L27.504 18.24ZM24.288 19.62C24.888 20.232 25.596 21.084 25.86 21.672L26.64 20.568C26.352 20.004 25.62 19.224 24.996 18.66L24.288 19.62ZM27.096 21.12C27.54 21.948 27.96 23.052 28.092 23.748L29.172 23.256C29.028 22.572 28.572 21.516 28.092 20.7L27.096 21.12ZM24.252 22.08L24.408 23.316C25.524 23.232 26.988 23.124 28.392 23.016L28.38 21.84C26.88 21.936 25.332 22.02 24.252 22.08ZM27.42 24.132C27.684 24.816 27.912 25.704 27.972 26.292L29.04 25.944C28.956 25.368 28.716 24.492 28.428 23.82L27.42 24.132ZM24.768 23.868C24.672 24.876 24.492 25.956 24.156 26.664C24.432 26.784 24.96 27.012 25.2 27.168C25.548 26.4 25.8 25.212 25.92 24.06L24.768 23.868ZM26.088 22.716V28.08H27.324V22.716H26.088ZM39.456 22.188H44.58V22.848H39.456V22.188ZM39.456 23.88H44.58V24.552H39.456V23.88ZM39.456 20.496H44.58V21.156H39.456V20.496ZM37.944 19.404V25.644H46.152V19.404H37.944ZM42.576 26.52C43.908 26.976 45.288 27.636 46.08 28.08L47.52 27.12C46.596 26.676 45.024 26.04 43.656 25.584L42.576 26.52ZM36.924 17.364V18.672H46.992V17.364H36.924ZM41.22 18C41.184 18.564 41.04 19.344 40.908 19.896L42.3 20.124C42.492 19.632 42.744 18.924 42.972 18.18L41.22 18ZM40.176 25.5C39.348 26.016 37.728 26.64 36.456 26.964C36.792 27.264 37.212 27.756 37.452 28.068C38.712 27.72 40.344 27.084 41.424 26.484L40.176 25.5ZM3.23996 36.396V37.596H10.944V36.396H3.23996ZM2.91595 38.412V39.624H11.484V38.412H2.91595ZM4.76395 35.4V38.976H6.08395V35.4H4.76395ZM4.16396 38.856V41.88H5.48396V38.856H4.16396ZM7.87196 35.4V38.964H9.21596V35.4H7.87196ZM1.54795 32.328V35.892C1.54795 37.812 1.45195 40.524 0.251953 42.372C0.611953 42.516 1.25995 42.888 1.54795 43.116C2.80795 41.136 2.99995 38.004 2.99995 35.892V32.328H1.54795ZM2.43596 32.328V33.54H9.38396V34.392H2.43596V35.604H10.836V32.328H2.43596ZM2.92796 41.604L3.13195 42.924C4.37995 42.732 6.05996 42.492 7.61996 42.228L7.55995 40.992C5.86795 41.244 4.10396 41.484 2.92796 41.604ZM7.53596 38.916L6.34795 39.168C7.12795 41.208 8.49595 42.528 10.764 43.092C10.944 42.732 11.328 42.192 11.616 41.904C9.52795 41.52 8.17196 40.464 7.53596 38.916ZM9.97195 39.468C9.49195 39.864 8.66396 40.404 8.06396 40.716L8.98795 41.4C9.59995 41.112 10.404 40.668 11.052 40.2L9.97195 39.468ZM17.244 36.276V41.352C17.244 41.532 17.172 41.58 16.944 41.58C16.716 41.592 15.864 41.592 15.18 41.556C15.396 41.988 15.624 42.636 15.684 43.08C16.74 43.08 17.532 43.056 18.096 42.84C18.648 42.6 18.828 42.192 18.828 41.388V36.276H17.244ZM14.364 37.788C13.92 39.036 13.128 40.32 12.264 41.112C12.636 41.304 13.296 41.712 13.596 41.976C14.448 41.064 15.336 39.612 15.876 38.184L14.364 37.788ZM20.052 38.304C20.82 39.468 21.636 41.016 21.912 42.012L23.4 41.352C23.076 40.332 22.2 38.856 21.408 37.74L20.052 38.304ZM13.74 32.58V34.008H22.248V32.58H13.74ZM12.648 35.472V36.912H23.376V35.472H12.648Z" fill="black"/>
</g>
<defs>
<clipPath id="clip0_315_4803">
<rect width="48" height="45" fill="white"/>
</clipPath>
</defs>
</svg>
