<svg width="259" height="45" viewBox="0 0 259 45" fill="none" xmlns="http://www.w3.org/2000/svg">
<path d="M116.375 4.9858V3.27273H123.751V4.9858H121.105V12H119.026V4.9858H116.375ZM126.865 8.26705V12H124.782V3.27273H126.797V6.65625H126.87C127.017 6.25284 127.259 5.9375 127.594 5.71023C127.932 5.48295 128.346 5.36932 128.834 5.36932C129.294 5.36932 129.695 5.47159 130.036 5.67614C130.377 5.87784 130.641 6.16335 130.828 6.53267C131.019 6.90199 131.113 7.33381 131.11 7.82812V12H129.026V8.23722C129.029 7.87358 128.938 7.58949 128.753 7.38494C128.569 7.1804 128.309 7.07812 127.973 7.07812C127.755 7.07812 127.561 7.12642 127.394 7.22301C127.229 7.31676 127.1 7.4517 127.006 7.62784C126.915 7.80398 126.868 8.01705 126.865 8.26705ZM135.47 12.1236C134.786 12.1236 134.195 11.9886 133.697 11.7188C133.203 11.446 132.822 11.0582 132.555 10.5554C132.291 10.0497 132.159 9.44886 132.159 8.75284C132.159 8.0767 132.293 7.4858 132.56 6.98011C132.827 6.47159 133.203 6.0767 133.689 5.79545C134.175 5.51136 134.747 5.36932 135.406 5.36932C135.872 5.36932 136.298 5.44176 136.685 5.58665C137.071 5.73153 137.405 5.94602 137.686 6.23011C137.967 6.5142 138.186 6.86506 138.342 7.28267C138.499 7.69744 138.577 8.1733 138.577 8.71023V9.23011H132.888V8.01989H136.638C136.635 7.7983 136.582 7.60085 136.48 7.42756C136.378 7.25426 136.237 7.11932 136.058 7.02273C135.882 6.9233 135.679 6.87358 135.449 6.87358C135.216 6.87358 135.007 6.92614 134.822 7.03125C134.638 7.13352 134.491 7.27415 134.384 7.45312C134.276 7.62926 134.219 7.82955 134.213 8.05398V9.28551C134.213 9.55256 134.266 9.78693 134.371 9.98864C134.476 10.1875 134.625 10.3423 134.818 10.4531C135.011 10.5639 135.241 10.6193 135.509 10.6193C135.693 10.6193 135.861 10.5937 136.011 10.5426C136.162 10.4915 136.291 10.4162 136.399 10.3168C136.507 10.2173 136.588 10.0952 136.642 9.95028L138.555 10.0057C138.476 10.4347 138.301 10.8082 138.031 11.1264C137.764 11.4418 137.413 11.6875 136.979 11.8636C136.544 12.0369 136.041 12.1236 135.47 12.1236ZM141.784 3.27273H144.141L145.986 6.92472H146.063L147.908 3.27273H150.265L147.073 9.08523V12H144.976V9.08523L141.784 3.27273ZM151.132 12V10.483L154.315 7.69602C154.554 7.48011 154.757 7.28267 154.924 7.10369C155.092 6.92187 155.22 6.74006 155.308 6.55824C155.396 6.37358 155.44 6.1733 155.44 5.95739C155.44 5.71591 155.387 5.50994 155.282 5.33949C155.177 5.16619 155.032 5.03267 154.848 4.93892C154.663 4.84517 154.451 4.7983 154.213 4.7983C153.971 4.7983 153.76 4.84801 153.578 4.94744C153.396 5.04403 153.254 5.18466 153.152 5.36932C153.052 5.55398 153.002 5.77841 153.002 6.04261H151.004C151.004 5.44886 151.137 4.93608 151.404 4.50426C151.672 4.07244 152.047 3.74006 152.529 3.5071C153.015 3.27131 153.579 3.15341 154.221 3.15341C154.883 3.15341 155.458 3.2642 155.947 3.4858C156.436 3.70739 156.814 4.01705 157.081 4.41477C157.35 4.80966 157.485 5.26847 157.485 5.79119C157.485 6.12358 157.419 6.45312 157.285 6.77983C157.152 7.10653 156.912 7.46733 156.565 7.86222C156.221 8.2571 155.733 8.73011 155.099 9.28125L154.055 10.2443V10.2997H157.592V12H151.132ZM158.801 12V3.27273H160.911V6.96307H161.026L163.911 3.27273H166.395L163.301 7.16761L166.45 12H163.928L161.754 8.5696L160.911 9.63494V12H158.801ZM124.582 21.4347H122.452C122.423 21.2159 122.365 21.0185 122.277 20.8423C122.189 20.6662 122.072 20.5156 121.928 20.3906C121.783 20.2656 121.611 20.1705 121.412 20.1051C121.216 20.0369 120.999 20.0028 120.76 20.0028C120.337 20.0028 119.972 20.1065 119.665 20.3139C119.361 20.5213 119.126 20.821 118.962 21.2131C118.8 21.6051 118.719 22.0795 118.719 22.6364C118.719 23.2159 118.801 23.7017 118.966 24.0938C119.134 24.483 119.368 24.777 119.669 24.9759C119.973 25.1719 120.332 25.2699 120.747 25.2699C120.98 25.2699 121.192 25.2401 121.382 25.1804C121.575 25.1207 121.744 25.0341 121.889 24.9205C122.037 24.804 122.158 24.6634 122.251 24.4986C122.348 24.331 122.415 24.142 122.452 23.9318L124.582 23.9446C124.545 24.331 124.433 24.7116 124.246 25.0866C124.061 25.4616 123.807 25.804 123.483 26.1136C123.159 26.4205 122.764 26.6648 122.298 26.8466C121.835 27.0284 121.304 27.1193 120.705 27.1193C119.915 27.1193 119.207 26.946 118.582 26.5994C117.96 26.25 117.469 25.7415 117.108 25.0739C116.747 24.4062 116.567 23.5937 116.567 22.6364C116.567 21.6761 116.75 20.8622 117.116 20.1946C117.483 19.527 117.979 19.0199 118.604 18.6733C119.229 18.3267 119.929 18.1534 120.705 18.1534C121.233 18.1534 121.722 18.2273 122.17 18.375C122.619 18.5199 123.014 18.733 123.355 19.0142C123.696 19.2926 123.973 19.6349 124.186 20.0412C124.399 20.4474 124.531 20.9119 124.582 21.4347ZM127.873 23.267V27H125.789V18.2727H127.805V21.6562H127.877C128.025 21.2528 128.267 20.9375 128.602 20.7102C128.94 20.483 129.353 20.3693 129.842 20.3693C130.302 20.3693 130.703 20.4716 131.044 20.6761C131.385 20.8778 131.649 21.1634 131.836 21.5327C132.027 21.902 132.12 22.3338 132.118 22.8281V27H130.034V23.2372C130.037 22.8736 129.946 22.5895 129.761 22.3849C129.576 22.1804 129.316 22.0781 128.981 22.0781C128.762 22.0781 128.569 22.1264 128.402 22.223C128.237 22.3168 128.108 22.4517 128.014 22.6278C127.923 22.804 127.876 23.017 127.873 23.267ZM133.418 27V20.4545H135.502V27H133.418ZM134.462 19.6918C134.17 19.6918 133.918 19.5952 133.708 19.402C133.498 19.206 133.393 18.9702 133.393 18.6946C133.393 18.4219 133.498 18.1889 133.708 17.9957C133.918 17.7997 134.17 17.7017 134.462 17.7017C134.758 17.7017 135.009 17.7997 135.217 17.9957C135.427 18.1889 135.532 18.4219 135.532 18.6946C135.532 18.9702 135.427 19.206 135.217 19.402C135.009 19.5952 134.758 19.6918 134.462 19.6918ZM138.912 23.267V27H136.828V20.4545H138.81V21.6562H138.882C139.027 21.2557 139.275 20.9418 139.624 20.7145C139.973 20.4844 140.39 20.3693 140.873 20.3693C141.333 20.3693 141.732 20.473 142.07 20.6804C142.411 20.8849 142.675 21.1719 142.863 21.5412C143.053 21.9077 143.147 22.3366 143.144 22.8281V27H141.06V23.2372C141.063 22.8736 140.971 22.5895 140.783 22.3849C140.598 22.1804 140.341 22.0781 140.012 22.0781C139.793 22.0781 139.6 22.1264 139.432 22.223C139.267 22.3168 139.14 22.4517 139.049 22.6278C138.961 22.804 138.915 23.017 138.912 23.267ZM147.494 27.1236C146.809 27.1236 146.218 26.9886 145.721 26.7188C145.227 26.446 144.846 26.0582 144.579 25.5554C144.315 25.0497 144.183 24.4489 144.183 23.7528C144.183 23.0767 144.316 22.4858 144.583 21.9801C144.85 21.4716 145.227 21.0767 145.712 20.7955C146.198 20.5114 146.771 20.3693 147.43 20.3693C147.896 20.3693 148.322 20.4418 148.708 20.5866C149.094 20.7315 149.428 20.946 149.71 21.2301C149.991 21.5142 150.21 21.8651 150.366 22.2827C150.522 22.6974 150.6 23.1733 150.6 23.7102V24.2301H144.911V23.0199H148.661C148.658 22.7983 148.606 22.6009 148.504 22.4276C148.401 22.2543 148.261 22.1193 148.082 22.0227C147.906 21.9233 147.702 21.8736 147.472 21.8736C147.239 21.8736 147.031 21.9261 146.846 22.0312C146.661 22.1335 146.515 22.2741 146.407 22.4531C146.299 22.6293 146.242 22.8295 146.237 23.054V24.2855C146.237 24.5526 146.289 24.7869 146.394 24.9886C146.499 25.1875 146.648 25.3423 146.842 25.4531C147.035 25.5639 147.265 25.6193 147.532 25.6193C147.717 25.6193 147.884 25.5937 148.035 25.5426C148.185 25.4915 148.315 25.4162 148.423 25.3168C148.531 25.2173 148.612 25.0952 148.665 24.9503L150.579 25.0057C150.499 25.4347 150.325 25.8082 150.055 26.1264C149.788 26.4418 149.437 26.6875 149.002 26.8636C148.567 27.0369 148.065 27.1236 147.494 27.1236ZM157.379 22.4531L155.466 22.5043C155.446 22.3679 155.392 22.2472 155.304 22.142C155.216 22.0341 155.1 21.9503 154.958 21.8906C154.819 21.8281 154.657 21.7969 154.473 21.7969C154.231 21.7969 154.025 21.8452 153.855 21.9418C153.687 22.0384 153.605 22.169 153.608 22.3338C153.605 22.4616 153.656 22.5724 153.761 22.6662C153.869 22.7599 154.061 22.8352 154.336 22.892L155.598 23.1307C156.251 23.2557 156.737 23.4631 157.055 23.7528C157.376 24.0426 157.538 24.4261 157.541 24.9034C157.538 25.3523 157.404 25.7429 157.14 26.0753C156.879 26.4077 156.521 26.6662 156.066 26.8509C155.612 27.0327 155.092 27.1236 154.507 27.1236C153.572 27.1236 152.835 26.9318 152.295 26.5483C151.758 26.1619 151.451 25.6449 151.375 24.9972L153.433 24.946C153.478 25.1847 153.596 25.3665 153.787 25.4915C153.977 25.6165 154.22 25.679 154.515 25.679C154.782 25.679 155 25.6293 155.167 25.5298C155.335 25.4304 155.42 25.2983 155.423 25.1335C155.42 24.9858 155.355 24.8679 155.227 24.7798C155.099 24.6889 154.899 24.6179 154.626 24.5668L153.484 24.3494C152.828 24.2301 152.339 24.0099 152.018 23.6889C151.697 23.3651 151.538 22.9531 151.541 22.4531C151.538 22.0156 151.654 21.642 151.89 21.3324C152.126 21.0199 152.461 20.7812 152.896 20.6165C153.331 20.4517 153.843 20.3693 154.434 20.3693C155.321 20.3693 156.02 20.5554 156.531 20.9276C157.042 21.2969 157.325 21.8054 157.379 22.4531ZM161.626 27.1236C160.942 27.1236 160.351 26.9886 159.854 26.7188C159.359 26.446 158.979 26.0582 158.712 25.5554C158.447 25.0497 158.315 24.4489 158.315 23.7528C158.315 23.0767 158.449 22.4858 158.716 21.9801C158.983 21.4716 159.359 21.0767 159.845 20.7955C160.331 20.5114 160.903 20.3693 161.562 20.3693C162.028 20.3693 162.455 20.4418 162.841 20.5866C163.227 20.7315 163.561 20.946 163.842 21.2301C164.124 21.5142 164.342 21.8651 164.499 22.2827C164.655 22.6974 164.733 23.1733 164.733 23.7102V24.2301H159.044V23.0199H162.794C162.791 22.7983 162.739 22.6009 162.636 22.4276C162.534 22.2543 162.393 22.1193 162.214 22.0227C162.038 21.9233 161.835 21.8736 161.605 21.8736C161.372 21.8736 161.163 21.9261 160.979 22.0312C160.794 22.1335 160.648 22.2741 160.54 22.4531C160.432 22.6293 160.375 22.8295 160.369 23.054V24.2855C160.369 24.5526 160.422 24.7869 160.527 24.9886C160.632 25.1875 160.781 25.3423 160.974 25.4531C161.168 25.5639 161.398 25.6193 161.665 25.6193C161.849 25.6193 162.017 25.5937 162.168 25.5426C162.318 25.4915 162.447 25.4162 162.555 25.3168C162.663 25.2173 162.744 25.0952 162.798 24.9503L164.712 25.0057C164.632 25.4347 164.457 25.8082 164.188 26.1264C163.92 26.4418 163.57 26.6875 163.135 26.8636C162.7 27.0369 162.197 27.1236 161.626 27.1236ZM169.986 22.6662V24.2727H165.946V22.6662H169.986ZM173.541 18.2727V27H171.457V18.2727H173.541ZM176.713 27.1108C176.295 27.1108 175.924 27.0412 175.6 26.902C175.279 26.7599 175.025 26.5469 174.838 26.2628C174.653 25.9759 174.561 25.6165 174.561 25.1847C174.561 24.821 174.625 24.5142 174.752 24.2642C174.88 24.0142 175.056 23.8111 175.281 23.6548C175.505 23.4986 175.764 23.3807 176.056 23.3011C176.349 23.2187 176.662 23.1634 176.994 23.1349C177.366 23.1009 177.666 23.0653 177.893 23.0284C178.12 22.9886 178.285 22.9332 178.387 22.8622C178.493 22.7884 178.545 22.6847 178.545 22.5511V22.5298C178.545 22.3111 178.47 22.142 178.319 22.0227C178.169 21.9034 177.966 21.8438 177.71 21.8438C177.434 21.8438 177.213 21.9034 177.045 22.0227C176.877 22.142 176.771 22.3068 176.725 22.517L174.804 22.4489C174.86 22.0511 175.007 21.696 175.243 21.3835C175.481 21.0682 175.808 20.821 176.223 20.642C176.64 20.4602 177.142 20.3693 177.727 20.3693C178.145 20.3693 178.529 20.419 178.882 20.5185C179.234 20.6151 179.541 20.7571 179.802 20.9446C180.064 21.1293 180.265 21.3565 180.407 21.6264C180.552 21.8963 180.625 22.2045 180.625 22.5511V27H178.664V26.0881H178.613C178.497 26.3097 178.348 26.4972 178.166 26.6506C177.987 26.804 177.775 26.919 177.531 26.9957C177.289 27.0724 177.017 27.1108 176.713 27.1108ZM177.356 25.7472C177.581 25.7472 177.782 25.7017 177.961 25.6108C178.143 25.5199 178.288 25.3949 178.396 25.2358C178.504 25.0739 178.558 24.8864 178.558 24.6733V24.0511C178.498 24.0824 178.426 24.1108 178.341 24.1364C178.258 24.1619 178.167 24.1861 178.068 24.2088C177.968 24.2315 177.866 24.2514 177.761 24.2685C177.656 24.2855 177.555 24.3011 177.458 24.3153C177.262 24.3466 177.095 24.3949 176.956 24.4602C176.819 24.5256 176.714 24.6108 176.64 24.7159C176.569 24.8182 176.534 24.9403 176.534 25.0824C176.534 25.2983 176.61 25.4631 176.764 25.5767C176.92 25.6903 177.118 25.7472 177.356 25.7472ZM183.983 23.267V27H181.899V20.4545H183.88V21.6562H183.953C184.098 21.2557 184.345 20.9418 184.694 20.7145C185.044 20.4844 185.46 20.3693 185.943 20.3693C186.403 20.3693 186.802 20.473 187.14 20.6804C187.481 20.8849 187.745 21.1719 187.933 21.5412C188.123 21.9077 188.217 22.3366 188.214 22.8281V27H186.13V23.2372C186.133 22.8736 186.041 22.5895 185.853 22.3849C185.669 22.1804 185.412 22.0781 185.082 22.0781C184.863 22.0781 184.67 22.1264 184.502 22.223C184.338 22.3168 184.21 22.4517 184.119 22.6278C184.031 22.804 183.985 23.017 183.983 23.267ZM192.555 29.5909C191.933 29.5909 191.401 29.5043 190.957 29.331C190.514 29.1577 190.166 28.9205 189.913 28.6193C189.661 28.3182 189.509 27.9773 189.457 27.5966L191.43 27.4858C191.467 27.6193 191.536 27.7358 191.635 27.8352C191.737 27.9347 191.869 28.0114 192.031 28.0653C192.196 28.1193 192.389 28.1463 192.611 28.1463C192.96 28.1463 193.249 28.0611 193.476 27.8906C193.706 27.723 193.821 27.429 193.821 27.0085V25.858H193.749C193.666 26.0597 193.541 26.2401 193.374 26.3991C193.206 26.5582 192.997 26.6832 192.747 26.7741C192.5 26.8651 192.216 26.9105 191.895 26.9105C191.418 26.9105 190.98 26.7997 190.582 26.5781C190.188 26.3537 189.871 26.0071 189.632 25.5384C189.396 25.0668 189.278 24.4602 189.278 23.7188C189.278 22.9545 189.401 22.3253 189.645 21.831C189.889 21.3338 190.209 20.9659 190.604 20.7273C191.001 20.4886 191.429 20.3693 191.886 20.3693C192.23 20.3693 192.524 20.429 192.768 20.5483C193.016 20.6648 193.219 20.8153 193.378 21C193.537 21.1847 193.658 21.3764 193.74 21.5753H193.8V20.4545H195.875V27.0256C195.875 27.5795 195.736 28.0469 195.457 28.4276C195.179 28.8082 194.79 29.0966 194.29 29.2926C193.79 29.4915 193.212 29.5909 192.555 29.5909ZM192.619 25.3935C192.872 25.3935 193.088 25.3267 193.267 25.1932C193.446 25.0597 193.584 24.8679 193.68 24.6179C193.777 24.3679 193.825 24.0682 193.825 23.7188C193.825 23.3636 193.777 23.0582 193.68 22.8026C193.587 22.544 193.449 22.3452 193.267 22.206C193.088 22.0668 192.872 21.9972 192.619 21.9972C192.361 21.9972 192.142 22.0682 191.963 22.2102C191.784 22.3523 191.648 22.5526 191.554 22.8111C191.463 23.0668 191.418 23.3693 191.418 23.7188C191.418 24.0682 191.464 24.3679 191.558 24.6179C191.652 24.8679 191.787 25.0597 191.963 25.1932C192.142 25.3267 192.361 25.3935 192.619 25.3935ZM201.426 24.1747V20.4545H203.506V27H201.52V25.7812H201.452C201.307 26.1818 201.06 26.5 200.711 26.7358C200.364 26.9687 199.945 27.0852 199.453 27.0852C199.007 27.0852 198.615 26.983 198.277 26.7784C197.939 26.5739 197.676 26.2884 197.489 25.9219C197.301 25.5526 197.206 25.1207 197.203 24.6264V20.4545H199.287V24.2173C199.29 24.5724 199.384 24.8523 199.569 25.0568C199.753 25.2614 200.005 25.3636 200.323 25.3636C200.53 25.3636 200.716 25.3182 200.881 25.2273C201.049 25.1335 201.181 24.9986 201.277 24.8224C201.377 24.6435 201.426 24.4276 201.426 24.1747ZM206.678 27.1108C206.26 27.1108 205.889 27.0412 205.565 26.902C205.244 26.7599 204.99 26.5469 204.803 26.2628C204.618 25.9759 204.526 25.6165 204.526 25.1847C204.526 24.821 204.589 24.5142 204.717 24.2642C204.845 24.0142 205.021 23.8111 205.246 23.6548C205.47 23.4986 205.729 23.3807 206.021 23.3011C206.314 23.2187 206.626 23.1634 206.959 23.1349C207.331 23.1009 207.631 23.0653 207.858 23.0284C208.085 22.9886 208.25 22.9332 208.352 22.8622C208.457 22.7884 208.51 22.6847 208.51 22.5511V22.5298C208.51 22.3111 208.435 22.142 208.284 22.0227C208.134 21.9034 207.93 21.8438 207.675 21.8438C207.399 21.8438 207.178 21.9034 207.01 22.0227C206.842 22.142 206.736 22.3068 206.69 22.517L204.768 22.4489C204.825 22.0511 204.972 21.696 205.207 21.3835C205.446 21.0682 205.773 20.821 206.188 20.642C206.605 20.4602 207.107 20.3693 207.692 20.3693C208.109 20.3693 208.494 20.419 208.847 20.5185C209.199 20.6151 209.506 20.7571 209.767 20.9446C210.028 21.1293 210.23 21.3565 210.372 21.6264C210.517 21.8963 210.589 22.2045 210.589 22.5511V27H208.629V26.0881H208.578C208.462 26.3097 208.313 26.4972 208.131 26.6506C207.952 26.804 207.74 26.919 207.496 26.9957C207.254 27.0724 206.982 27.1108 206.678 27.1108ZM207.321 25.7472C207.545 25.7472 207.747 25.7017 207.926 25.6108C208.108 25.5199 208.253 25.3949 208.361 25.2358C208.469 25.0739 208.523 24.8864 208.523 24.6733V24.0511C208.463 24.0824 208.391 24.1108 208.305 24.1364C208.223 24.1619 208.132 24.1861 208.033 24.2088C207.933 24.2315 207.831 24.2514 207.726 24.2685C207.621 24.2855 207.52 24.3011 207.423 24.3153C207.227 24.3466 207.06 24.3949 206.92 24.4602C206.784 24.5256 206.679 24.6108 206.605 24.7159C206.534 24.8182 206.499 24.9403 206.499 25.0824C206.499 25.2983 206.575 25.4631 206.729 25.5767C206.885 25.6903 207.082 25.7472 207.321 25.7472ZM214.915 29.5909C214.293 29.5909 213.76 29.5043 213.317 29.331C212.874 29.1577 212.526 28.9205 212.273 28.6193C212.02 28.3182 211.868 27.9773 211.817 27.5966L213.79 27.4858C213.827 27.6193 213.895 27.7358 213.994 27.8352C214.097 27.9347 214.229 28.0114 214.391 28.0653C214.555 28.1193 214.749 28.1463 214.97 28.1463C215.32 28.1463 215.608 28.0611 215.835 27.8906C216.065 27.723 216.18 27.429 216.18 27.0085V25.858H216.108C216.026 26.0597 215.901 26.2401 215.733 26.3991C215.565 26.5582 215.357 26.6832 215.107 26.7741C214.859 26.8651 214.575 26.9105 214.254 26.9105C213.777 26.9105 213.339 26.7997 212.942 26.5781C212.547 26.3537 212.23 26.0071 211.991 25.5384C211.756 25.0668 211.638 24.4602 211.638 23.7188C211.638 22.9545 211.76 22.3253 212.004 21.831C212.249 21.3338 212.568 20.9659 212.963 20.7273C213.361 20.4886 213.788 20.3693 214.246 20.3693C214.589 20.3693 214.884 20.429 215.128 20.5483C215.375 20.6648 215.578 20.8153 215.737 21C215.896 21.1847 216.017 21.3764 216.099 21.5753H216.159V20.4545H218.234V27.0256C218.234 27.5795 218.095 28.0469 217.817 28.4276C217.538 28.8082 217.149 29.0966 216.649 29.2926C216.149 29.4915 215.571 29.5909 214.915 29.5909ZM214.979 25.3935C215.232 25.3935 215.447 25.3267 215.626 25.1932C215.805 25.0597 215.943 24.8679 216.04 24.6179C216.136 24.3679 216.185 24.0682 216.185 23.7188C216.185 23.3636 216.136 23.0582 216.04 22.8026C215.946 22.544 215.808 22.3452 215.626 22.206C215.447 22.0668 215.232 21.9972 214.979 21.9972C214.72 21.9972 214.501 22.0682 214.322 22.2102C214.143 22.3523 214.007 22.5526 213.913 22.8111C213.822 23.0668 213.777 23.3693 213.777 23.7188C213.777 24.0682 213.824 24.3679 213.918 24.6179C214.011 24.8679 214.146 25.0597 214.322 25.1932C214.501 25.3267 214.72 25.3935 214.979 25.3935ZM222.623 27.1236C221.938 27.1236 221.347 26.9886 220.85 26.7188C220.355 26.446 219.975 26.0582 219.708 25.5554C219.444 25.0497 219.311 24.4489 219.311 23.7528C219.311 23.0767 219.445 22.4858 219.712 21.9801C219.979 21.4716 220.355 21.0767 220.841 20.7955C221.327 20.5114 221.9 20.3693 222.559 20.3693C223.025 20.3693 223.451 20.4418 223.837 20.5866C224.223 20.7315 224.557 20.946 224.838 21.2301C225.12 21.5142 225.338 21.8651 225.495 22.2827C225.651 22.6974 225.729 23.1733 225.729 23.7102V24.2301H220.04V23.0199H223.79C223.787 22.7983 223.735 22.6009 223.632 22.4276C223.53 22.2543 223.39 22.1193 223.211 22.0227C223.034 21.9233 222.831 21.8736 222.601 21.8736C222.368 21.8736 222.159 21.9261 221.975 22.0312C221.79 22.1335 221.644 22.2741 221.536 22.4531C221.428 22.6293 221.371 22.8295 221.365 23.054V24.2855C221.365 24.5526 221.418 24.7869 221.523 24.9886C221.628 25.1875 221.777 25.3423 221.971 25.4531C222.164 25.5639 222.394 25.6193 222.661 25.6193C222.846 25.6193 223.013 25.5937 223.164 25.5426C223.314 25.4915 223.444 25.4162 223.551 25.3168C223.659 25.2173 223.74 25.0952 223.794 24.9503L225.708 25.0057C225.628 25.4347 225.453 25.8082 225.184 26.1264C224.917 26.4418 224.566 26.6875 224.131 26.8636C223.696 27.0369 223.194 27.1236 222.623 27.1236ZM231.464 27L228.924 18.2727H231.255L232.572 23.9915H232.644L234.148 18.2727H236.049L237.553 24.0043H237.626L238.947 18.2727H241.273L238.738 27H236.705L235.133 21.7074H235.065L233.492 27H231.464ZM244.478 27.1236C243.793 27.1236 243.202 26.9886 242.705 26.7188C242.211 26.446 241.83 26.0582 241.563 25.5554C241.299 25.0497 241.167 24.4489 241.167 23.7528C241.167 23.0767 241.3 22.4858 241.567 21.9801C241.835 21.4716 242.211 21.0767 242.697 20.7955C243.183 20.5114 243.755 20.3693 244.414 20.3693C244.88 20.3693 245.306 20.4418 245.692 20.5866C246.079 20.7315 246.413 20.946 246.694 21.2301C246.975 21.5142 247.194 21.8651 247.35 22.2827C247.506 22.6974 247.585 23.1733 247.585 23.7102V24.2301H241.896V23.0199H245.646C245.643 22.7983 245.59 22.6009 245.488 22.4276C245.386 22.2543 245.245 22.1193 245.066 22.0227C244.89 21.9233 244.687 21.8736 244.457 21.8736C244.224 21.8736 244.015 21.9261 243.83 22.0312C243.646 22.1335 243.499 22.2741 243.391 22.4531C243.283 22.6293 243.227 22.8295 243.221 23.054V24.2855C243.221 24.5526 243.273 24.7869 243.379 24.9886C243.484 25.1875 243.633 25.3423 243.826 25.4531C244.019 25.5639 244.249 25.6193 244.516 25.6193C244.701 25.6193 244.869 25.5937 245.019 25.5426C245.17 25.4915 245.299 25.4162 245.407 25.3168C245.515 25.2173 245.596 25.0952 245.65 24.9503L247.563 25.0057C247.484 25.4347 247.309 25.8082 247.039 26.1264C246.772 26.4418 246.421 26.6875 245.987 26.8636C245.552 27.0369 245.049 27.1236 244.478 27.1236ZM248.649 27V18.2727H250.733V21.5753H250.775C250.86 21.3764 250.981 21.1847 251.137 21C251.297 20.8153 251.498 20.6648 251.743 20.5483C251.99 20.429 252.285 20.3693 252.629 20.3693C253.083 20.3693 253.508 20.4886 253.903 20.7273C254.301 20.9659 254.622 21.3338 254.866 21.831C255.11 22.3281 255.233 22.9616 255.233 23.7315C255.233 24.473 255.115 25.0938 254.879 25.5938C254.646 26.0938 254.331 26.4688 253.933 26.7188C253.538 26.9688 253.099 27.0938 252.616 27.0938C252.287 27.0938 252.001 27.0398 251.76 26.9318C251.518 26.8239 251.315 26.6818 251.15 26.5057C250.988 26.3295 250.863 26.1406 250.775 25.9389H250.711V27H248.649ZM250.69 23.7273C250.69 24.0795 250.737 24.3864 250.831 24.6477C250.927 24.9091 251.065 25.1122 251.244 25.2571C251.426 25.3991 251.643 25.4702 251.896 25.4702C252.152 25.4702 252.369 25.3991 252.548 25.2571C252.727 25.1122 252.862 24.9091 252.953 24.6477C253.047 24.3864 253.093 24.0795 253.093 23.7273C253.093 23.375 253.047 23.0696 252.953 22.8111C252.862 22.5526 252.727 22.3523 252.548 22.2102C252.372 22.0682 252.154 21.9972 251.896 21.9972C251.64 21.9972 251.423 22.0668 251.244 22.206C251.065 22.3452 250.927 22.544 250.831 22.8026C250.737 23.0611 250.69 23.3693 250.69 23.7273ZM121.378 35.8892C121.349 35.5767 121.223 35.3338 120.999 35.1605C120.777 34.9844 120.46 34.8963 120.048 34.8963C119.776 34.8963 119.548 34.9318 119.366 35.0028C119.185 35.0739 119.048 35.1719 118.957 35.2969C118.866 35.419 118.82 35.5597 118.817 35.7188C118.811 35.8494 118.837 35.9645 118.893 36.0639C118.953 36.1634 119.038 36.2514 119.149 36.3281C119.263 36.402 119.399 36.4673 119.558 36.5241C119.717 36.581 119.896 36.6307 120.095 36.6733L120.845 36.8438C121.277 36.9375 121.658 37.0625 121.987 37.2188C122.32 37.375 122.598 37.5611 122.822 37.777C123.05 37.9929 123.222 38.2415 123.338 38.5227C123.455 38.804 123.514 39.1193 123.517 39.4688C123.514 40.0199 123.375 40.4929 123.099 40.8878C122.824 41.2827 122.428 41.5852 121.911 41.7955C121.396 42.0057 120.776 42.1108 120.048 42.1108C119.318 42.1108 118.682 42.0014 118.139 41.7827C117.597 41.5639 117.175 41.2315 116.874 40.7855C116.572 40.3395 116.418 39.7756 116.409 39.0938H118.429C118.446 39.375 118.521 39.6094 118.655 39.7969C118.788 39.9844 118.972 40.1264 119.205 40.223C119.44 40.3196 119.713 40.3679 120.023 40.3679C120.307 40.3679 120.548 40.3295 120.747 40.2528C120.949 40.1761 121.104 40.0696 121.212 39.9332C121.32 39.7969 121.375 39.6406 121.378 39.4645C121.375 39.2997 121.324 39.1591 121.224 39.0426C121.125 38.9233 120.972 38.821 120.764 38.7358C120.56 38.6477 120.298 38.5668 119.98 38.4929L119.068 38.2798C118.312 38.1065 117.717 37.8267 117.283 37.4403C116.848 37.0511 116.632 36.5256 116.635 35.8636C116.632 35.3239 116.777 34.8509 117.07 34.4446C117.362 34.0384 117.767 33.7216 118.284 33.4943C118.801 33.267 119.391 33.1534 120.053 33.1534C120.729 33.1534 121.315 33.2685 121.812 33.4986C122.312 33.7259 122.7 34.0455 122.976 34.4574C123.251 34.8693 123.392 35.3466 123.398 35.8892H121.378ZM126.666 38.267V42H124.582V33.2727H126.598V36.6562H126.67C126.818 36.2528 127.06 35.9375 127.395 35.7102C127.733 35.483 128.146 35.3693 128.635 35.3693C129.095 35.3693 129.496 35.4716 129.837 35.6761C130.178 35.8778 130.442 36.1634 130.629 36.5327C130.82 36.902 130.913 37.3338 130.911 37.8281V42H128.827V38.2372C128.83 37.8736 128.739 37.5895 128.554 37.3849C128.369 37.1804 128.109 37.0781 127.774 37.0781C127.555 37.0781 127.362 37.1264 127.195 37.223C127.03 37.3168 126.901 37.4517 126.807 37.6278C126.716 37.804 126.669 38.017 126.666 38.267ZM135.267 42.1236C134.579 42.1236 133.988 41.983 133.494 41.7017C133.002 41.4176 132.623 41.0227 132.356 40.517C132.092 40.0085 131.96 39.419 131.96 38.7486C131.96 38.0753 132.092 37.4858 132.356 36.9801C132.623 36.4716 133.002 36.0767 133.494 35.7955C133.988 35.5114 134.579 35.3693 135.267 35.3693C135.954 35.3693 136.544 35.5114 137.035 35.7955C137.529 36.0767 137.909 36.4716 138.173 36.9801C138.44 37.4858 138.574 38.0753 138.574 38.7486C138.574 39.419 138.44 40.0085 138.173 40.517C137.909 41.0227 137.529 41.4176 137.035 41.7017C136.544 41.983 135.954 42.1236 135.267 42.1236ZM135.279 40.5511C135.529 40.5511 135.741 40.4744 135.914 40.321C136.088 40.1676 136.22 39.9545 136.311 39.6818C136.404 39.4091 136.451 39.0937 136.451 38.7358C136.451 38.3722 136.404 38.054 136.311 37.7812C136.22 37.5085 136.088 37.2955 135.914 37.142C135.741 36.9886 135.529 36.9119 135.279 36.9119C135.021 36.9119 134.802 36.9886 134.623 37.142C134.447 37.2955 134.312 37.5085 134.218 37.7812C134.127 38.054 134.082 38.3722 134.082 38.7358C134.082 39.0937 134.127 39.4091 134.218 39.6818C134.312 39.9545 134.447 40.1676 134.623 40.321C134.802 40.4744 135.021 40.5511 135.279 40.5511ZM140.723 42L139.019 35.4545H141.111L141.993 39.6477H142.049L142.995 35.4545H145.036L146.007 39.6179H146.063L146.919 35.4545H149.012L147.303 42H145.074L144.051 38.1861H143.979L142.956 42H140.723ZM152.763 42.1236C152.072 42.1236 151.48 41.9815 150.986 41.6974C150.494 41.4134 150.116 41.0185 149.852 40.5128C149.588 40.0043 149.456 39.4162 149.456 38.7486C149.456 38.0781 149.588 37.4901 149.852 36.9844C150.119 36.4759 150.499 36.0795 150.99 35.7955C151.484 35.5114 152.074 35.3693 152.759 35.3693C153.364 35.3693 153.891 35.4787 154.339 35.6974C154.791 35.9162 155.143 36.2259 155.396 36.6264C155.652 37.0241 155.787 37.4915 155.801 38.0284H153.854C153.814 37.6932 153.7 37.4304 153.513 37.2401C153.328 37.0497 153.087 36.9545 152.788 36.9545C152.547 36.9545 152.335 37.0227 152.153 37.1591C151.972 37.2926 151.83 37.4915 151.727 37.7557C151.628 38.017 151.578 38.3409 151.578 38.7273C151.578 39.1136 151.628 39.4403 151.727 39.7074C151.83 39.9716 151.972 40.1719 152.153 40.3082C152.335 40.4418 152.547 40.5085 152.788 40.5085C152.982 40.5085 153.152 40.4673 153.3 40.3849C153.45 40.3026 153.574 40.1818 153.67 40.0227C153.767 39.8608 153.828 39.6648 153.854 39.4347H155.801C155.781 39.9744 155.646 40.446 155.396 40.8494C155.149 41.2528 154.801 41.5668 154.352 41.7912C153.906 42.0128 153.376 42.1236 152.763 42.1236ZM158.713 42.1108C158.295 42.1108 157.924 42.0412 157.6 41.902C157.279 41.7599 157.025 41.5469 156.838 41.2628C156.653 40.9759 156.561 40.6165 156.561 40.1847C156.561 39.821 156.625 39.5142 156.752 39.2642C156.88 39.0142 157.056 38.8111 157.281 38.6548C157.505 38.4986 157.764 38.3807 158.056 38.3011C158.349 38.2187 158.662 38.1634 158.994 38.1349C159.366 38.1009 159.666 38.0653 159.893 38.0284C160.12 37.9886 160.285 37.9332 160.387 37.8622C160.493 37.7884 160.545 37.6847 160.545 37.5511V37.5298C160.545 37.3111 160.47 37.142 160.319 37.0227C160.169 36.9034 159.966 36.8438 159.71 36.8438C159.434 36.8438 159.213 36.9034 159.045 37.0227C158.877 37.142 158.771 37.3068 158.725 37.517L156.804 37.4489C156.86 37.0511 157.007 36.696 157.243 36.3835C157.481 36.0682 157.808 35.821 158.223 35.642C158.64 35.4602 159.142 35.3693 159.727 35.3693C160.145 35.3693 160.529 35.419 160.882 35.5185C161.234 35.6151 161.541 35.7571 161.802 35.9446C162.064 36.1293 162.265 36.3565 162.407 36.6264C162.552 36.8963 162.625 37.2045 162.625 37.5511V42H160.664V41.0881H160.613C160.497 41.3097 160.348 41.4972 160.166 41.6506C159.987 41.804 159.775 41.919 159.531 41.9957C159.289 42.0724 159.017 42.1108 158.713 42.1108ZM159.356 40.7472C159.581 40.7472 159.782 40.7017 159.961 40.6108C160.143 40.5199 160.288 40.3949 160.396 40.2358C160.504 40.0739 160.558 39.8864 160.558 39.6733V39.0511C160.498 39.0824 160.426 39.1108 160.341 39.1364C160.258 39.1619 160.167 39.1861 160.068 39.2088C159.968 39.2315 159.866 39.2514 159.761 39.2685C159.656 39.2855 159.555 39.3011 159.458 39.3153C159.262 39.3466 159.095 39.3949 158.956 39.4602C158.819 39.5256 158.714 39.6108 158.64 39.7159C158.569 39.8182 158.534 39.9403 158.534 40.0824C158.534 40.2983 158.61 40.4631 158.764 40.5767C158.92 40.6903 159.118 40.7472 159.356 40.7472ZM169.613 37.4531L167.7 37.5043C167.68 37.3679 167.626 37.2472 167.538 37.142C167.45 37.0341 167.335 36.9503 167.193 36.8906C167.054 36.8281 166.892 36.7969 166.707 36.7969C166.466 36.7969 166.26 36.8452 166.089 36.9418C165.922 37.0384 165.839 37.169 165.842 37.3338C165.839 37.4616 165.89 37.5724 165.995 37.6662C166.103 37.7599 166.295 37.8352 166.571 37.892L167.832 38.1307C168.485 38.2557 168.971 38.4631 169.289 38.7528C169.61 39.0426 169.772 39.4261 169.775 39.9034C169.772 40.3523 169.639 40.7429 169.375 41.0753C169.113 41.4077 168.755 41.6662 168.301 41.8509C167.846 42.0327 167.326 42.1236 166.741 42.1236C165.806 42.1236 165.069 41.9318 164.529 41.5483C163.993 41.1619 163.686 40.6449 163.609 39.9972L165.667 39.946C165.713 40.1847 165.831 40.3665 166.021 40.4915C166.211 40.6165 166.454 40.679 166.75 40.679C167.017 40.679 167.234 40.6293 167.402 40.5298C167.569 40.4304 167.654 40.2983 167.657 40.1335C167.654 39.9858 167.589 39.8679 167.461 39.7798C167.333 39.6889 167.133 39.6179 166.86 39.5668L165.718 39.3494C165.062 39.2301 164.574 39.0099 164.252 38.6889C163.931 38.3651 163.772 37.9531 163.775 37.4531C163.772 37.0156 163.889 36.642 164.125 36.3324C164.36 36.0199 164.696 35.7812 165.13 35.6165C165.565 35.4517 166.078 35.3693 166.669 35.3693C167.555 35.3693 168.254 35.5554 168.765 35.9276C169.277 36.2969 169.559 36.8054 169.613 37.4531ZM173.861 42.1236C173.176 42.1236 172.585 41.9886 172.088 41.7188C171.594 41.446 171.213 41.0582 170.946 40.5554C170.682 40.0497 170.55 39.4489 170.55 38.7528C170.55 38.0767 170.683 37.4858 170.95 36.9801C171.217 36.4716 171.594 36.0767 172.08 35.7955C172.565 35.5114 173.138 35.3693 173.797 35.3693C174.263 35.3693 174.689 35.4418 175.075 35.5866C175.462 35.7315 175.795 35.946 176.077 36.2301C176.358 36.5142 176.577 36.8651 176.733 37.2827C176.889 37.6974 176.967 38.1733 176.967 38.7102V39.2301H171.278V38.0199H175.028C175.026 37.7983 174.973 37.6009 174.871 37.4276C174.768 37.2543 174.628 37.1193 174.449 37.0227C174.273 36.9233 174.07 36.8736 173.839 36.8736C173.607 36.8736 173.398 36.9261 173.213 37.0312C173.028 37.1335 172.882 37.2741 172.774 37.4531C172.666 37.6293 172.609 37.8295 172.604 38.054V39.2855C172.604 39.5526 172.656 39.7869 172.761 39.9886C172.866 40.1875 173.016 40.3423 173.209 40.4531C173.402 40.5639 173.632 40.6193 173.899 40.6193C174.084 40.6193 174.251 40.5937 174.402 40.5426C174.553 40.4915 174.682 40.4162 174.79 40.3168C174.898 40.2173 174.979 40.0952 175.033 39.9503L176.946 40.0057C176.866 40.4347 176.692 40.8082 176.422 41.1264C176.155 41.4418 175.804 41.6875 175.369 41.8636C174.935 42.0369 174.432 42.1236 173.861 42.1236Z" fill="#FAFAFA"/>
<path d="M0.54 6.504V7.908H11.472V6.504H0.54ZM5.184 3.804V13.068H6.732V3.804H5.184ZM9.276 1.896C7.308 2.496 4.08 2.94 1.2 3.168C1.356 3.492 1.548 4.08 1.584 4.44C4.524 4.236 7.908 3.816 10.368 3.12L9.276 1.896ZM12.504 4.956V6.216H16.836V4.956H12.504ZM12.804 2.568V3.816H16.656V2.568H12.804ZM15.84 6.804V11.232H16.752V6.804H15.84ZM14.136 5.58V13.08H15.324V5.58H14.136ZM12.684 6.828V8.232C12.684 9.276 12.624 10.5 12.252 11.472C12.516 11.604 12.9 11.892 13.08 12.096C13.548 10.956 13.62 9.516 13.62 8.268V6.828H12.684ZM16.896 2.568V3.564H23.4V2.568H16.896ZM17.184 4.068V5.064H23.208V4.068H17.184ZM16.836 8.628V9.708H23.652V8.628H16.836ZM17.832 11.748V12.768H22.632V11.748H17.832ZM19.44 1.824V4.668H20.868V1.824H19.44ZM18.708 6.336H21.66V6.936H18.708V6.336ZM17.436 5.436V7.848H22.992V5.436H17.436ZM17.364 10.092V13.068H18.636V11.052H21.78V13.056H23.124V10.092H17.364ZM18.012 7.944C18.156 8.256 18.312 8.7 18.384 8.988L19.56 8.676C19.488 8.412 19.296 7.98 19.14 7.68L18.012 7.944ZM21.24 7.572C21.144 7.896 20.928 8.364 20.772 8.7L21.792 9.012C21.984 8.724 22.224 8.34 22.5 7.908L21.24 7.572ZM26.976 1.764C26.46 3.324 25.524 4.86 24.444 5.796C24.792 6 25.404 6.48 25.68 6.732C26.748 5.652 27.804 3.924 28.44 2.136L26.976 1.764ZM27.228 3.132L26.532 4.524H34.86V3.132H27.228ZM26.376 5.964V9.828H27.828V7.308H34.584V5.964H26.376ZM24.48 9.12V10.512H35.52V9.12H24.48ZM29.904 3.852V13.08H31.392V3.852H29.904ZM1.044 18.9V24.984H2.496V20.316H9.456V24.924H10.968V18.9H1.044ZM1.8 22.896V24.312H10.296V22.896H1.8ZM5.208 16.812V28.08H6.732V16.812H5.208ZM20.292 19.488C19.044 23.4 16.464 25.62 12.312 26.712C12.6 27.06 13.056 27.756 13.224 28.116C17.52 26.772 20.316 24.252 21.828 19.932L20.292 19.488ZM15.66 19.584L14.22 20.016C15.72 24.168 18.192 26.916 22.692 28.092C22.92 27.672 23.388 26.988 23.736 26.652C19.464 25.692 16.872 23.136 15.66 19.584ZM12.528 18.708V20.124H23.52V18.708H12.528ZM17.244 16.812V19.572H18.732V16.812H17.244ZM28.08 18.648C28.044 21.912 27.744 24.576 26.304 26.136C26.604 26.316 27.192 26.76 27.396 26.976C28.884 25.14 29.256 22.32 29.364 18.684L28.08 18.648ZM31.14 18.648C31.104 21.96 30.816 24.624 29.328 26.172C29.64 26.352 30.228 26.808 30.42 27.024C31.968 25.2 32.34 22.38 32.436 18.684L31.14 18.648ZM26.328 21.42C27.516 22.344 28.836 23.7 29.436 24.636L30.216 23.556C29.58 22.656 28.272 21.396 27.024 20.508L26.328 21.42ZM29.46 21.276C30.72 22.26 32.124 23.712 32.772 24.696L33.564 23.604C32.892 22.644 31.5 21.312 30.18 20.352L29.46 21.276ZM24.912 17.472V28.056H26.292V18.84H34.488V17.472H24.912ZM33.744 17.472V26.412C33.744 26.604 33.672 26.676 33.468 26.676C33.264 26.676 32.568 26.688 31.956 26.652C32.148 27.024 32.364 27.672 32.424 28.056C33.42 28.056 34.08 28.02 34.548 27.792C34.992 27.564 35.148 27.156 35.148 26.424V17.472H33.744ZM36.792 17.376V18.708H47.304V17.376H36.792ZM41.088 18.036C40.98 18.648 40.728 19.488 40.5 20.076L41.748 20.328C42.036 19.8 42.432 19.032 42.744 18.252L41.088 18.036ZM41.28 21.612V23.76C41.28 24.936 40.608 26.172 36.468 26.94C36.792 27.228 37.2 27.792 37.368 28.092C41.832 27.156 42.78 25.524 42.78 23.796V21.612H41.28ZM42.42 25.872C43.8 26.472 45.672 27.444 46.548 28.104L47.436 26.964C46.488 26.328 44.568 25.416 43.236 24.888L42.42 25.872ZM37.776 19.8V25.38H39.252V21.12H44.856V25.344H46.404V19.8H37.776ZM3.24 36.396V37.596H10.944V36.396H3.24ZM2.916 38.412V39.624H11.484V38.412H2.916ZM4.764 35.4V38.976H6.084V35.4H4.764ZM4.164 38.856V41.88H5.484V38.856H4.164ZM7.872 35.4V38.964H9.216V35.4H7.872ZM1.548 32.328V35.892C1.548 37.812 1.452 40.524 0.252 42.372C0.612 42.516 1.26 42.888 1.548 43.116C2.808 41.136 3 38.004 3 35.892V32.328H1.548ZM2.436 32.328V33.54H9.384V34.392H2.436V35.604H10.836V32.328H2.436ZM2.928 41.604L3.132 42.924C4.38 42.732 6.06 42.492 7.62 42.228L7.56 40.992C5.868 41.244 4.104 41.484 2.928 41.604ZM7.536 38.916L6.348 39.168C7.128 41.208 8.496 42.528 10.764 43.092C10.944 42.732 11.328 42.192 11.616 41.904C9.528 41.52 8.172 40.464 7.536 38.916ZM9.972 39.468C9.492 39.864 8.664 40.404 8.064 40.716L8.988 41.4C9.6 41.112 10.404 40.668 11.052 40.2L9.972 39.468ZM17.244 36.276V41.352C17.244 41.532 17.172 41.58 16.944 41.58C16.716 41.592 15.864 41.592 15.18 41.556C15.396 41.988 15.624 42.636 15.684 43.08C16.74 43.08 17.532 43.056 18.096 42.84C18.648 42.6 18.828 42.192 18.828 41.388V36.276H17.244ZM14.364 37.788C13.92 39.036 13.128 40.32 12.264 41.112C12.636 41.304 13.296 41.712 13.596 41.976C14.448 41.064 15.336 39.612 15.876 38.184L14.364 37.788ZM20.052 38.304C20.82 39.468 21.636 41.016 21.912 42.012L23.4 41.352C23.076 40.332 22.2 38.856 21.408 37.74L20.052 38.304ZM13.74 32.58V34.008H22.248V32.58H13.74ZM12.648 35.472V36.912H23.376V35.472H12.648Z" fill="#FAFAFA"/>
<path d="M58.54 6.504V7.908H69.472V6.504H58.54ZM63.184 3.804V13.068H64.732V3.804H63.184ZM67.276 1.896C65.308 2.496 62.08 2.94 59.2 3.168C59.356 3.492 59.548 4.08 59.584 4.44C62.524 4.236 65.908 3.816 68.368 3.12L67.276 1.896ZM70.504 4.956V6.216H74.836V4.956H70.504ZM70.804 2.568V3.816H74.656V2.568H70.804ZM73.84 6.804V11.232H74.752V6.804H73.84ZM72.136 5.58V13.08H73.324V5.58H72.136ZM70.684 6.828V8.232C70.684 9.276 70.624 10.5 70.252 11.472C70.516 11.604 70.9 11.892 71.08 12.096C71.548 10.956 71.62 9.516 71.62 8.268V6.828H70.684ZM74.896 2.568V3.564H81.4V2.568H74.896ZM75.184 4.068V5.064H81.208V4.068H75.184ZM74.836 8.628V9.708H81.652V8.628H74.836ZM75.832 11.748V12.768H80.632V11.748H75.832ZM77.44 1.824V4.668H78.868V1.824H77.44ZM76.708 6.336H79.66V6.936H76.708V6.336ZM75.436 5.436V7.848H80.992V5.436H75.436ZM75.364 10.092V13.068H76.636V11.052H79.78V13.056H81.124V10.092H75.364ZM76.012 7.944C76.156 8.256 76.312 8.7 76.384 8.988L77.56 8.676C77.488 8.412 77.296 7.98 77.14 7.68L76.012 7.944ZM79.24 7.572C79.144 7.896 78.928 8.364 78.772 8.7L79.792 9.012C79.984 8.724 80.224 8.34 80.5 7.908L79.24 7.572ZM84.976 1.764C84.46 3.324 83.524 4.86 82.444 5.796C82.792 6 83.404 6.48 83.68 6.732C84.748 5.652 85.804 3.924 86.44 2.136L84.976 1.764ZM85.228 3.132L84.532 4.524H92.86V3.132H85.228ZM84.376 5.964V9.828H85.828V7.308H92.584V5.964H84.376ZM82.48 9.12V10.512H93.52V9.12H82.48ZM87.904 3.852V13.08H89.392V3.852H87.904ZM59.044 18.9V24.984H60.496V20.316H67.456V24.924H68.968V18.9H59.044ZM59.8 22.896V24.312H68.296V22.896H59.8ZM63.208 16.812V28.08H64.732V16.812H63.208ZM78.292 19.488C77.044 23.4 74.464 25.62 70.312 26.712C70.6 27.06 71.056 27.756 71.224 28.116C75.52 26.772 78.316 24.252 79.828 19.932L78.292 19.488ZM73.66 19.584L72.22 20.016C73.72 24.168 76.192 26.916 80.692 28.092C80.92 27.672 81.388 26.988 81.736 26.652C77.464 25.692 74.872 23.136 73.66 19.584ZM70.528 18.708V20.124H81.52V18.708H70.528ZM75.244 16.812V19.572H76.732V16.812H75.244ZM89.464 21.648V22.956H90.676V21.648H89.464ZM90.712 18.792C90.628 19.284 90.424 19.98 90.256 20.448L91.072 20.724C91.276 20.316 91.528 19.68 91.804 19.116L90.712 18.792ZM88.48 19.164C88.684 19.644 88.864 20.304 88.9 20.724L89.824 20.388C89.764 19.98 89.572 19.344 89.332 18.864L88.48 19.164ZM86.86 17.328V28.104H88.144V18.576H92.464V17.328H86.86ZM92.032 17.328V26.652C92.032 26.82 91.972 26.88 91.804 26.892C91.636 26.892 91.096 26.892 90.604 26.868C90.772 27.204 90.952 27.756 90.988 28.092C91.828 28.092 92.404 28.056 92.812 27.864C93.208 27.648 93.328 27.312 93.328 26.664V17.328H92.032ZM88.444 20.616V21.684H91.708V20.616H88.444ZM88.408 22.632V23.712H91.732V22.632H88.408ZM88.804 23.196V24.768C88.804 25.896 89.044 26.292 90.196 26.292C90.328 26.292 90.844 26.292 91 26.292C91.264 26.292 91.516 26.28 91.696 26.208C91.66 25.932 91.624 25.404 91.6 25.092C91.444 25.14 91.156 25.164 90.988 25.164C90.844 25.164 90.328 25.164 90.184 25.164C90.028 25.164 90.004 25.068 90.004 24.78V23.196H88.804ZM84.148 16.824C83.872 17.652 83.356 18.816 82.936 19.536L83.896 19.932C84.352 19.26 84.904 18.192 85.396 17.256L84.148 16.824ZM85.504 18.24C84.868 19.524 83.776 21.276 82.876 22.356L83.704 22.824C84.628 21.792 85.792 20.124 86.668 18.78L85.504 18.24ZM82.288 19.62C82.888 20.232 83.596 21.084 83.86 21.672L84.64 20.568C84.352 20.004 83.62 19.224 82.996 18.66L82.288 19.62ZM85.096 21.12C85.54 21.948 85.96 23.052 86.092 23.748L87.172 23.256C87.028 22.572 86.572 21.516 86.092 20.7L85.096 21.12ZM82.252 22.08L82.408 23.316C83.524 23.232 84.988 23.124 86.392 23.016L86.38 21.84C84.88 21.936 83.332 22.02 82.252 22.08ZM85.42 24.132C85.684 24.816 85.912 25.704 85.972 26.292L87.04 25.944C86.956 25.368 86.716 24.492 86.428 23.82L85.42 24.132ZM82.768 23.868C82.672 24.876 82.492 25.956 82.156 26.664C82.432 26.784 82.96 27.012 83.2 27.168C83.548 26.4 83.8 25.212 83.92 24.06L82.768 23.868ZM84.088 22.716V28.08H85.324V22.716H84.088ZM97.456 22.188H102.58V22.848H97.456V22.188ZM97.456 23.88H102.58V24.552H97.456V23.88ZM97.456 20.496H102.58V21.156H97.456V20.496ZM95.944 19.404V25.644H104.152V19.404H95.944ZM100.576 26.52C101.908 26.976 103.288 27.636 104.08 28.08L105.52 27.12C104.596 26.676 103.024 26.04 101.656 25.584L100.576 26.52ZM94.924 17.364V18.672H104.992V17.364H94.924ZM99.22 18C99.184 18.564 99.04 19.344 98.908 19.896L100.3 20.124C100.492 19.632 100.744 18.924 100.972 18.18L99.22 18ZM98.176 25.5C97.348 26.016 95.728 26.64 94.456 26.964C94.792 27.264 95.212 27.756 95.452 28.068C96.712 27.72 98.344 27.084 99.424 26.484L98.176 25.5ZM61.24 36.396V37.596H68.944V36.396H61.24ZM60.916 38.412V39.624H69.484V38.412H60.916ZM62.764 35.4V38.976H64.084V35.4H62.764ZM62.164 38.856V41.88H63.484V38.856H62.164ZM65.872 35.4V38.964H67.216V35.4H65.872ZM59.548 32.328V35.892C59.548 37.812 59.452 40.524 58.252 42.372C58.612 42.516 59.26 42.888 59.548 43.116C60.808 41.136 61 38.004 61 35.892V32.328H59.548ZM60.436 32.328V33.54H67.384V34.392H60.436V35.604H68.836V32.328H60.436ZM60.928 41.604L61.132 42.924C62.38 42.732 64.06 42.492 65.62 42.228L65.56 40.992C63.868 41.244 62.104 41.484 60.928 41.604ZM65.536 38.916L64.348 39.168C65.128 41.208 66.496 42.528 68.764 43.092C68.944 42.732 69.328 42.192 69.616 41.904C67.528 41.52 66.172 40.464 65.536 38.916ZM67.972 39.468C67.492 39.864 66.664 40.404 66.064 40.716L66.988 41.4C67.6 41.112 68.404 40.668 69.052 40.2L67.972 39.468ZM75.244 36.276V41.352C75.244 41.532 75.172 41.58 74.944 41.58C74.716 41.592 73.864 41.592 73.18 41.556C73.396 41.988 73.624 42.636 73.684 43.08C74.74 43.08 75.532 43.056 76.096 42.84C76.648 42.6 76.828 42.192 76.828 41.388V36.276H75.244ZM72.364 37.788C71.92 39.036 71.128 40.32 70.264 41.112C70.636 41.304 71.296 41.712 71.596 41.976C72.448 41.064 73.336 39.612 73.876 38.184L72.364 37.788ZM78.052 38.304C78.82 39.468 79.636 41.016 79.912 42.012L81.4 41.352C81.076 40.332 80.2 38.856 79.408 37.74L78.052 38.304ZM71.74 32.58V34.008H80.248V32.58H71.74ZM70.648 35.472V36.912H81.376V35.472H70.648Z" fill="#FAFAFA"/>
</svg>
